<svg width="54" height="54" viewBox="0 0 54 54" fill="none" xmlns="http://www.w3.org/2000/svg">
<path d="M8.31153 0C3.74019 0 0 3.72243 0 8.27206V43.4283C0 47.9779 3.74019 51.7004 8.31153 51.7004H31.1682C31.9994 51.7004 32.6228 51.506 33.2461 51.506C30.3371 50.8856 27.8561 49.4256 25.7782 47.5643H8.31153C6.02586 47.5643 4.15576 45.7031 4.15576 43.4283V8.27206C4.15576 5.99724 6.02586 4.13603 8.31153 4.13603H21.4292C22.8837 4.54963 22.8567 6.41085 22.8567 8.27206V14.4761C22.8567 15.7169 23.6879 16.5441 24.9346 16.5441H31.1682C33.2461 16.5441 35.324 16.5441 35.324 18.6121V20.6801H36.3629C37.4019 20.6801 38.4408 20.8621 39.4798 21.0689V16.5441C39.4798 14.2693 37.4268 12.1765 33.8944 8.65878C33.2711 8.24517 32.8305 7.65166 32.2072 7.23805C31.7916 6.61765 31.1932 6.17716 30.7776 5.55676C27.2473 2.0432 25.1424 0 22.8567 0H8.31153ZM36.3629 24.8162C30.1293 24.8162 24.9346 29.9862 24.9346 36.1903C24.9346 42.3943 30.1293 47.5643 36.3629 47.5643C39.0081 47.5643 41.4226 46.5903 43.3758 45.0434L44.0262 45.6907C43.7661 46.0743 43.6496 46.5367 43.6971 46.997C43.7446 47.4574 43.953 47.8865 44.2859 48.2096L49.4806 53.3796C50.3118 54.2068 51.5065 54.2068 52.3377 53.3796L53.3766 52.3456C54.2078 51.5184 54.2078 50.2652 53.3766 49.438L48.1819 44.2679C47.8774 43.9507 47.4736 43.7459 47.0367 43.6873C46.5998 43.6287 46.1559 43.7197 45.7778 43.9453L45.1939 43.298C46.8001 41.3376 47.7913 38.8725 47.7913 36.1903C47.7913 29.9862 42.5966 24.8162 36.3629 24.8162ZM36.3629 27.9182C40.9343 27.9182 44.6745 31.6406 44.6745 36.1903C44.6745 40.7399 40.9343 44.4623 36.3629 44.4623C31.7916 44.4623 28.0514 40.7399 28.0514 36.1903C28.0514 31.6406 31.7916 27.9182 36.3629 27.9182Z" fill="#7D7D7D"/>
</svg>
