<svg width="24" height="23" viewBox="0 0 24 23" fill="none" xmlns="http://www.w3.org/2000/svg">
<path fill-rule="evenodd" clip-rule="evenodd" d="M2.94735 0.461169C2.62403 0.16191 2.191 -0.00368101 1.74152 6.21043e-05C1.29204 0.00380522 0.862076 0.176583 0.544234 0.481182C0.226391 0.785781 0.0461016 1.19783 0.0421957 1.62858C0.0382899 2.05933 0.21108 2.47432 0.523351 2.78417L9.59706 11.4798L0.523351 20.1755C0.359619 20.327 0.229021 20.5083 0.139177 20.7087C0.0493334 20.9092 0.0020427 21.1247 6.47259e-05 21.3429C-0.00191325 21.561 0.0414611 21.7773 0.127657 21.9792C0.213853 22.1811 0.341144 22.3646 0.502103 22.5188C0.663062 22.6731 0.854465 22.7951 1.06514 22.8777C1.27582 22.9603 1.50156 23.0018 1.72918 22.9999C1.9568 22.998 2.18175 22.9527 2.3909 22.8666C2.60005 22.7805 2.78921 22.6554 2.94735 22.4985L12.0211 13.8028L21.0948 22.4985C21.4181 22.7977 21.8511 22.9633 22.3006 22.9596C22.7501 22.9558 23.1801 22.783 23.4979 22.4784C23.8157 22.1738 23.996 21.7618 23.9999 21.331C24.0038 20.9003 23.8311 20.4853 23.5188 20.1755L14.4451 11.4798L23.5188 2.78417C23.8311 2.47432 24.0038 2.05933 23.9999 1.62858C23.996 1.19783 23.8157 0.785781 23.4979 0.481182C23.1801 0.176583 22.7501 0.00380522 22.3006 6.21043e-05C21.8511 -0.00368101 21.4181 0.16191 21.0948 0.461169L12.0211 9.15681L2.94735 0.461169Z" fill="#1D1D1D"/>
</svg>
