<svg width="30" height="30" viewBox="0 0 30 30" fill="none" xmlns="http://www.w3.org/2000/svg">
<path d="M22.5 16.2471H16.25V22.4971C16.25 22.8286 16.1183 23.1465 15.8839 23.381C15.6495 23.6154 15.3315 23.7471 15 23.7471C14.6685 23.7471 14.3505 23.6154 14.1161 23.381C13.8817 23.1465 13.75 22.8286 13.75 22.4971V16.2471H7.5C7.16848 16.2471 6.85054 16.1154 6.61612 15.881C6.3817 15.6465 6.25 15.3286 6.25 14.9971C6.25 14.6655 6.3817 14.3476 6.61612 14.1132C6.85054 13.8788 7.16848 13.7471 7.5 13.7471H13.75V7.49707C13.75 7.16555 13.8817 6.84761 14.1161 6.61319C14.3505 6.37877 14.6685 6.24707 15 6.24707C15.3315 6.24707 15.6495 6.37877 15.8839 6.61319C16.1183 6.84761 16.25 7.16555 16.25 7.49707V13.7471H22.5C22.8315 13.7471 23.1495 13.8788 23.3839 14.1132C23.6183 14.3476 23.75 14.6655 23.75 14.9971C23.75 15.3286 23.6183 15.6465 23.3839 15.881C23.1495 16.1154 22.8315 16.2471 22.5 16.2471Z" fill="#7D7D7D"/>
</svg>
