<svg width="14" height="14" viewBox="0 0 14 14" fill="none" xmlns="http://www.w3.org/2000/svg">
<path d="M13.5616 2.95461L9.14214 7.37402L13.5616 11.7934C13.796 12.0279 13.9277 12.3458 13.9277 12.6773C13.9277 13.0088 13.796 13.3268 13.5616 13.5612C13.3271 13.7956 13.0092 13.9273 12.6777 13.9273C12.3461 13.9273 12.0282 13.7956 11.7938 13.5612L7.37437 9.14179L2.95495 13.5612C2.72053 13.7956 2.40259 13.9273 2.07107 13.9273C1.73955 13.9273 1.4216 13.7956 1.18718 13.5612C0.952763 13.3268 0.821068 13.0088 0.821068 12.6773C0.821068 12.3458 0.952764 12.0279 1.18718 11.7934L5.6066 7.37402L1.18718 2.95461C0.952764 2.72019 0.821068 2.40224 0.821067 2.07072C0.821068 1.7392 0.952763 1.42126 1.18718 1.18684C1.4216 0.952418 1.73955 0.820723 2.07107 0.820722C2.40259 0.820723 2.72053 0.952419 2.95495 1.18684L7.37437 5.60626L11.7938 1.18684C12.0282 0.952419 12.3461 0.820722 12.6777 0.820722C13.0092 0.820722 13.3271 0.952418 13.5616 1.18684C13.796 1.42126 13.9277 1.7392 13.9277 2.07072C13.9277 2.40224 13.796 2.72019 13.5616 2.95461Z" fill="#7D7D7D"/>
</svg>
