<svg width="14" height="14" viewBox="0 0 14 14" fill="none" xmlns="http://www.w3.org/2000/svg">
<path d="M12.7412 2.13381L8.32182 6.55322L12.7412 10.9726C12.9757 11.2071 13.1074 11.525 13.1074 11.8565C13.1074 12.188 12.9757 12.506 12.7412 12.7404C12.5068 12.9748 12.1889 13.1065 11.8574 13.1065C11.5258 13.1065 11.2079 12.9748 10.9735 12.7404L6.55406 8.32099L2.13464 12.7404C1.90022 12.9748 1.58228 13.1065 1.25076 13.1065C0.919235 13.1065 0.601292 12.9748 0.366872 12.7404C0.132451 12.506 0.000755602 12.188 0.000755381 11.8565C0.000755508 11.525 0.132451 11.2071 0.366872 10.9726L4.78629 6.55322L0.366872 2.13381C0.132451 1.89938 0.000755086 1.58144 0.00075496 1.24992C0.000755181 0.918401 0.132451 0.600459 0.366872 0.366038C0.601292 0.131618 0.919234 -7.81218e-05 1.25075 -7.83431e-05C1.58228 -7.78794e-05 1.90022 0.131618 2.13464 0.366038L6.55406 4.78546L10.9735 0.366038C11.2079 0.131618 11.5258 -7.84273e-05 11.8574 -7.87645e-05C12.1889 -7.87645e-05 12.5068 0.131618 12.7412 0.366038C12.9757 0.600459 13.1074 0.9184 13.1074 1.24992C13.1074 1.58144 12.9757 1.89939 12.7412 2.13381Z" fill="#7D7D7D"/>
</svg>
