<svg width="24" height="24" viewBox="0 0 24 24" fill="none" xmlns="http://www.w3.org/2000/svg">
<path d="M11.9992 18.3002C12.7172 18.3002 13.2992 17.7182 13.2992 17.0002C13.2992 16.2822 12.7172 15.7002 11.9992 15.7002C11.2812 15.7002 10.6992 16.2822 10.6992 17.0002C10.6992 17.7182 11.2812 18.3002 11.9992 18.3002Z" fill="#7D7D7D"/>
<path d="M17 10H16V8C16 5.794 14.206 4 12 4C9.794 4 8 5.794 8 8V10H7C6.46957 10 5.96086 10.2107 5.58579 10.5858C5.21071 10.9609 5 11.4696 5 12V19C5 19.5304 5.21071 20.0391 5.58579 20.4142C5.96086 20.7893 6.46957 21 7 21H17C17.5304 21 18.0391 20.7893 18.4142 20.4142C18.7893 20.0391 19 19.5304 19 19V12C19 11.4696 18.7893 10.9609 18.4142 10.5858C18.0391 10.2107 17.5304 10 17 10ZM10 8C10 7.46957 10.2107 6.96086 10.5858 6.58579C10.9609 6.21071 11.4696 6 12 6C12.5304 6 13.0391 6.21071 13.4142 6.58579C13.7893 6.96086 14 7.46957 14 8V11H10V8ZM17 19H7V12H17.003L17 19Z" fill="#7D7D7D"/>
</svg>
