<svg width="124" height="50" viewBox="0 0 124 50" fill="none" xmlns="http://www.w3.org/2000/svg">
<path d="M36.745 27.44C36.4517 30.08 35.545 32.4 34.025 34.4C32.505 36.3733 30.505 37.9067 28.025 39C25.5717 40.0933 22.745 40.64 19.545 40.64C16.0517 40.64 12.9983 39.9867 10.385 38.68C7.77167 37.3733 5.73167 35.5467 4.265 33.2C2.825 30.8533 2.105 28.12 2.105 25C2.105 21.88 2.825 19.1467 4.265 16.8C5.73167 14.4533 7.77167 12.6267 10.385 11.32C12.9983 10.0133 16.0517 9.36 19.545 9.36C22.745 9.36 25.5717 9.90667 28.025 11C30.505 12.0933 32.505 13.64 34.025 15.64C35.545 17.6133 36.4517 19.92 36.745 22.56H28.425C28.1583 21.28 27.6383 20.2 26.865 19.32C26.0917 18.4133 25.0783 17.72 23.825 17.24C22.5983 16.76 21.1717 16.52 19.545 16.52C17.6783 16.52 16.065 16.8667 14.705 17.56C13.345 18.2267 12.305 19.2 11.585 20.48C10.865 21.7333 10.505 23.24 10.505 25C10.505 26.76 10.865 28.28 11.585 29.56C12.305 30.8133 13.345 31.7867 14.705 32.48C16.065 33.1467 17.6783 33.48 19.545 33.48C21.1717 33.48 22.5983 33.2533 23.825 32.8C25.0783 32.3467 26.0917 31.6667 26.865 30.76C27.6383 29.8533 28.1583 28.7467 28.425 27.44H36.745ZM40.4916 9.2H48.6916V40H40.4916V9.2ZM53.5869 16.8L57.7069 17.6L61.7869 16.8V40H53.5869V16.8ZM57.6669 14.92C56.2535 14.92 55.1069 14.5733 54.2269 13.88C53.3469 13.16 52.9069 12.1867 52.9069 10.96C52.9069 9.76 53.3469 8.8 54.2269 8.08C55.1069 7.36 56.2535 7 57.6669 7C59.1335 7 60.2935 7.36 61.1469 8.08C62.0269 8.8 62.4669 9.76 62.4669 10.96C62.4669 12.1867 62.0269 13.16 61.1469 13.88C60.2935 14.5733 59.1335 14.92 57.6669 14.92ZM74.8822 33.48L72.6422 32.72L85.2822 17.16H93.8822L74.0022 40H66.6822V9.2H74.8822V33.48ZM78.7622 28.84L84.9222 24.52L94.4822 40H85.2822L78.7622 28.84Z" fill="white"/>
<path fill-rule="evenodd" clip-rule="evenodd" d="M103.065 22.088C102.548 20.4797 104.02 18.9504 105.568 19.4871L122.358 25.3012C124.056 25.8889 124.193 28.3317 122.57 29.1186L115.59 32.5013L112.333 39.7542C111.576 41.4398 109.226 41.2982 108.66 39.5336L103.065 22.088ZM106.821 23.39L110.723 35.5533L112.902 30.7021C113.098 30.2642 113.437 29.9123 113.858 29.7079L118.529 27.4444L106.821 23.39Z" fill="#CBE896"/>
<path d="M112.159 12.6392C112.456 12.9479 112.622 13.3665 112.622 13.803C112.622 14.2395 112.456 14.6581 112.159 14.9668L109.918 17.2977C109.771 17.4507 109.596 17.572 109.404 17.6548C109.212 17.7375 109.006 17.7801 108.798 17.7801C108.589 17.7801 108.383 17.7375 108.191 17.6548C107.999 17.572 107.824 17.4507 107.677 17.2977C107.529 17.1448 107.413 16.9632 107.333 16.7634C107.253 16.5636 107.212 16.3494 107.212 16.1331C107.212 15.9168 107.253 15.7026 107.333 15.5028C107.413 15.303 107.529 15.1214 107.677 14.9685L109.918 12.6408C110.215 12.3322 110.618 12.1589 111.038 12.1589C111.459 12.1589 111.861 12.3306 112.159 12.6392Z" fill="white"/>
<path d="M105.901 10.9108C105.901 10.4742 105.734 10.0555 105.437 9.74679C105.14 9.43808 104.737 9.26465 104.316 9.26465C103.896 9.26465 103.493 9.43808 103.196 9.74679C102.899 10.0555 102.732 10.4742 102.732 10.9108V14.203C102.732 14.6396 102.899 15.0583 103.196 15.367C103.493 15.6757 103.896 15.8491 104.316 15.8491C104.737 15.8491 105.14 15.6757 105.437 15.367C105.734 15.0583 105.901 14.6396 105.901 14.203V10.9108Z" fill="white"/>
<path d="M98.7145 12.6392C98.5683 12.482 98.3935 12.3566 98.2002 12.2703C98.0069 12.184 97.799 12.1386 97.5887 12.1367C97.3783 12.1348 97.1697 12.1765 96.975 12.2592C96.7803 12.342 96.6034 12.4642 96.4547 12.6188C96.3059 12.7734 96.1883 12.9572 96.1086 13.1595C96.029 13.3618 95.9889 13.5785 95.9907 13.7971C95.9925 14.0157 96.0362 14.2317 96.1193 14.4325C96.2023 14.6333 96.323 14.815 96.4743 14.9668L98.7145 17.2977C98.8618 17.4508 99.0366 17.5722 99.2291 17.655C99.4215 17.7379 99.6278 17.7805 99.8361 17.7805C100.044 17.7805 100.251 17.7379 100.443 17.655C100.636 17.5722 100.81 17.4508 100.958 17.2977C101.105 17.1447 101.222 16.963 101.302 16.763C101.381 16.563 101.422 16.3487 101.422 16.1323C101.422 15.9158 101.381 15.7015 101.302 15.5015C101.222 15.3016 101.105 15.1199 100.958 14.9668L98.7145 12.6392Z" fill="white"/>
<path d="M100.956 26.6082C101.103 26.4554 101.22 26.2739 101.3 26.0742C101.38 25.8745 101.421 25.6604 101.421 25.4442C101.421 25.2279 101.38 25.0138 101.3 24.814C101.221 24.6143 101.104 24.4327 100.957 24.2798C100.81 24.1268 100.635 24.0055 100.443 23.9227C100.251 23.8399 100.045 23.7972 99.8367 23.7971C99.6286 23.797 99.4225 23.8396 99.2302 23.9222C99.038 24.0049 98.8632 24.1261 98.716 24.2789L96.4743 26.6099C96.1772 26.9187 96.0104 27.3376 96.0106 27.7743C96.0107 28.2109 96.1778 28.6296 96.4751 28.9383C96.7724 29.247 97.1755 29.4203 97.5957 29.4201C98.016 29.42 98.419 29.2464 98.716 28.9375L100.956 26.6082Z" fill="white"/>
<path d="M93.2266 20.7875C93.2266 20.3509 93.3935 19.9322 93.6906 19.6235C93.9877 19.3148 94.3907 19.1414 94.8108 19.1414H97.9794C98.3995 19.1414 98.8025 19.3148 99.0996 19.6235C99.3967 19.9322 99.5636 20.3509 99.5636 20.7875C99.5636 21.2241 99.3967 21.6428 99.0996 21.9515C98.8025 22.2602 98.3995 22.4336 97.9794 22.4336H94.8108C94.3907 22.4336 93.9877 22.2602 93.6906 21.9515C93.3935 21.6428 93.2266 21.2241 93.2266 20.7875Z" fill="white"/>
</svg>
