<svg width="51" height="20" viewBox="0 0 51 20" fill="none" xmlns="http://www.w3.org/2000/svg">
<path d="M14.448 10.976C14.3307 12.032 13.968 12.96 13.36 13.76C12.752 14.5493 11.952 15.1627 10.96 15.6C9.97867 16.0373 8.848 16.256 7.568 16.256C6.17067 16.256 4.94933 15.9947 3.904 15.472C2.85867 14.9493 2.04267 14.2187 1.456 13.28C0.88 12.3413 0.592 11.248 0.592 10C0.592 8.752 0.88 7.65867 1.456 6.72C2.04267 5.78133 2.85867 5.05067 3.904 4.528C4.94933 4.00533 6.17067 3.744 7.568 3.744C8.848 3.744 9.97867 3.96267 10.96 4.4C11.952 4.83733 12.752 5.456 13.36 6.256C13.968 7.04533 14.3307 7.968 14.448 9.024H11.12C11.0133 8.512 10.8053 8.08 10.496 7.728C10.1867 7.36533 9.78133 7.088 9.28 6.896C8.78933 6.704 8.21867 6.608 7.568 6.608C6.82133 6.608 6.176 6.74667 5.632 7.024C5.088 7.29067 4.672 7.68 4.384 8.192C4.096 8.69333 3.952 9.296 3.952 10C3.952 10.704 4.096 11.312 4.384 11.824C4.672 12.3253 5.088 12.7147 5.632 12.992C6.176 13.2587 6.82133 13.392 7.568 13.392C8.21867 13.392 8.78933 13.3013 9.28 13.12C9.78133 12.9387 10.1867 12.6667 10.496 12.304C10.8053 11.9413 11.0133 11.4987 11.12 10.976H14.448ZM15.9466 3.68H19.2266V16H15.9466V3.68ZM21.1847 6.72L22.8327 7.04L24.4647 6.72V16H21.1847V6.72ZM22.8167 5.968C22.2514 5.968 21.7927 5.82933 21.4407 5.552C21.0887 5.264 20.9127 4.87467 20.9127 4.384C20.9127 3.904 21.0887 3.52 21.4407 3.232C21.7927 2.944 22.2514 2.8 22.8167 2.8C23.4034 2.8 23.8674 2.944 24.2087 3.232C24.5608 3.52 24.7368 3.904 24.7368 4.384C24.7368 4.87467 24.5608 5.264 24.2087 5.552C23.8674 5.82933 23.4034 5.968 22.8167 5.968ZM29.7029 13.392L28.8069 13.088L33.8629 6.864H37.3029L29.3509 16H26.4229V3.68H29.7029V13.392ZM31.2549 11.536L33.7189 9.808L37.5429 16H33.8629L31.2549 11.536Z" fill="white"/>
<path fill-rule="evenodd" clip-rule="evenodd" d="M41.9307 8.56061C41.7243 7.94221 42.3123 7.35419 42.9307 7.56054L49.6388 9.79614C50.3173 10.0221 50.3718 10.9614 49.7236 11.264L46.9348 12.5647L45.6334 15.3535C45.3309 16.0016 44.3922 15.9472 44.1663 15.2687L41.9307 8.56061ZM43.4314 9.06128L44.9904 13.7382L45.8607 11.8729C45.9393 11.7045 46.0746 11.5691 46.243 11.4906L48.1089 10.6202L43.4314 9.06128Z" fill="#CBE896"/>
<path d="M45.5638 4.92744C45.6825 5.04614 45.7491 5.2071 45.7491 5.37494C45.7491 5.54278 45.6825 5.70374 45.5638 5.82244L44.6688 6.71871C44.61 6.77751 44.5402 6.82416 44.4634 6.85599C44.3865 6.88782 44.3042 6.9042 44.221 6.9042C44.1378 6.9042 44.0555 6.88782 43.9786 6.85599C43.9018 6.82416 43.832 6.77751 43.7732 6.71871C43.7144 6.6599 43.6677 6.59008 43.6359 6.51325C43.6041 6.43641 43.5877 6.35406 43.5877 6.27089C43.5877 6.18772 43.6041 6.10537 43.6359 6.02853C43.6677 5.9517 43.7144 5.88188 43.7732 5.82307L44.6688 4.92808C44.7875 4.80941 44.9485 4.74275 45.1163 4.74275C45.2842 4.74275 45.4451 4.80878 45.5638 4.92744Z" fill="white"/>
<path d="M43.0636 4.26284C43.0636 4.09497 42.997 3.93397 42.8783 3.81527C42.7596 3.69657 42.5986 3.62988 42.4307 3.62988C42.2628 3.62988 42.1018 3.69657 41.9831 3.81527C41.8644 3.93397 41.7977 4.09497 41.7977 4.26284V5.52875C41.7977 5.69662 41.8644 5.85761 41.9831 5.97632C42.1018 6.09502 42.2628 6.16171 42.4307 6.16171C42.5986 6.16171 42.7596 6.09502 42.8783 5.97632C42.997 5.85761 43.0636 5.69662 43.0636 5.52875V4.26284Z" fill="white"/>
<path d="M40.1926 4.92744C40.1342 4.86699 40.0643 4.81877 39.9871 4.7856C39.9099 4.75242 39.8268 4.73496 39.7428 4.73423C39.6587 4.7335 39.5754 4.74952 39.4976 4.78134C39.4198 4.81317 39.3491 4.86017 39.2897 4.9196C39.2303 4.97903 39.1833 5.0497 39.1515 5.12749C39.1196 5.20527 39.1036 5.28862 39.1043 5.37266C39.1051 5.45671 39.1225 5.53976 39.1557 5.61699C39.1889 5.69421 39.2371 5.76405 39.2976 5.82244L40.1926 6.71871C40.2514 6.77756 40.3213 6.82424 40.3982 6.85609C40.4751 6.88794 40.5575 6.90433 40.6407 6.90433C40.7239 6.90433 40.8063 6.88794 40.8832 6.85609C40.9601 6.82424 41.03 6.77756 41.0888 6.71871C41.1477 6.65986 41.1944 6.58999 41.2262 6.5131C41.2581 6.43621 41.2744 6.3538 41.2744 6.27057C41.2744 6.18735 41.2581 6.10494 41.2262 6.02805C41.1944 5.95116 41.1477 5.88129 41.0888 5.82244L40.1926 4.92744Z" fill="white"/>
<path d="M41.0882 10.2987C41.147 10.2399 41.1937 10.1702 41.2255 10.0934C41.2573 10.0166 41.2737 9.93425 41.2738 9.85111C41.2738 9.76797 41.2575 9.68565 41.2257 9.60882C41.1939 9.532 41.1473 9.4622 41.0885 9.40339C41.0297 9.34458 40.96 9.29792 40.8832 9.26608C40.8064 9.23424 40.7241 9.21783 40.6409 9.2178C40.5578 9.21777 40.4754 9.23412 40.3986 9.26591C40.3218 9.2977 40.252 9.34431 40.1932 9.40307L39.2976 10.2993C39.1789 10.4181 39.1122 10.5792 39.1123 10.7471C39.1124 10.915 39.1791 11.076 39.2979 11.1947C39.4166 11.3133 39.5777 11.38 39.7456 11.3799C39.9135 11.3799 40.0745 11.3131 40.1932 11.1943L41.0882 10.2987Z" fill="white"/>
<path d="M38 8.06057C38 7.8927 38.0667 7.73171 38.1854 7.61301C38.3041 7.4943 38.4651 7.42762 38.633 7.42762H39.8989C40.0667 7.42762 40.2277 7.4943 40.3464 7.61301C40.4651 7.73171 40.5318 7.8927 40.5318 8.06057C40.5318 8.22844 40.4651 8.38944 40.3464 8.50814C40.2277 8.62684 40.0667 8.69353 39.8989 8.69353H38.633C38.4651 8.69353 38.3041 8.62684 38.1854 8.50814C38.0667 8.38944 38 8.22844 38 8.06057Z" fill="white"/>
</svg>
