<svg width="18" height="18" viewBox="0 0 18 18" fill="none" xmlns="http://www.w3.org/2000/svg">
<path d="M16.5 10.2471H10.25V16.4971C10.25 16.8286 10.1183 17.1465 9.88388 17.381C9.64946 17.6154 9.33152 17.7471 9 17.7471C8.66848 17.7471 8.35054 17.6154 8.11612 17.381C7.8817 17.1465 7.75 16.8286 7.75 16.4971V10.2471H1.5C1.16848 10.2471 0.850537 10.1154 0.616117 9.88095C0.381696 9.64653 0.25 9.32859 0.25 8.99707C0.25 8.66555 0.381696 8.34761 0.616117 8.11319C0.850537 7.87877 1.16848 7.74707 1.5 7.74707H7.75V1.49707C7.75 1.16555 7.8817 0.847607 8.11612 0.613186C8.35054 0.378766 8.66848 0.24707 9 0.24707C9.33152 0.24707 9.64946 0.378766 9.88388 0.613186C10.1183 0.847607 10.25 1.16555 10.25 1.49707V7.74707H16.5C16.8315 7.74707 17.1495 7.87877 17.3839 8.11319C17.6183 8.34761 17.75 8.66555 17.75 8.99707C17.75 9.32859 17.6183 9.64653 17.3839 9.88095C17.1495 10.1154 16.8315 10.2471 16.5 10.2471Z" fill="#7D7D7D"/>
</svg>
