<svg width="14" height="14" viewBox="0 0 14 14" fill="none" xmlns="http://www.w3.org/2000/svg">
<path d="M12.7412 2.13429L8.32182 6.55371L12.7412 10.9731C12.9757 11.2075 13.1074 11.5255 13.1074 11.857C13.1074 12.1885 12.9757 12.5065 12.7412 12.7409C12.5068 12.9753 12.1889 13.107 11.8574 13.107C11.5258 13.107 11.2079 12.9753 10.9735 12.7409L6.55406 8.32148L2.13464 12.7409C1.90022 12.9753 1.58228 13.107 1.25076 13.107C0.919235 13.107 0.601292 12.9753 0.366872 12.7409C0.132451 12.5065 0.000755602 12.1885 0.000755381 11.857C0.000755508 11.5255 0.132451 11.2075 0.366872 10.9731L4.78629 6.55371L0.366872 2.13429C0.132451 1.89987 0.000755086 1.58193 0.00075496 1.25041C0.000755181 0.918889 0.132451 0.600947 0.366872 0.366527C0.601292 0.132106 0.919234 0.000410159 1.25075 0.000409938C1.58228 0.000410402 1.90022 0.132106 2.13464 0.366527L6.55406 4.78594L10.9735 0.366527C11.2079 0.132107 11.5258 0.000409854 11.8574 0.000409517C12.1889 0.000409517 12.5068 0.132106 12.7412 0.366527C12.9757 0.600947 13.1074 0.918888 13.1074 1.25041C13.1074 1.58193 12.9757 1.89987 12.7412 2.13429Z" fill="#F0436C"/>
</svg>
