<svg width="833" height="814" viewBox="0 0 833 814" fill="none" xmlns="http://www.w3.org/2000/svg">
<path d="M558.323 670.354C416.329 737.014 174.677 651.757 114.117 507.056C56.214 368.702 150.872 230.148 283.35 159.834C440.841 76.2437 651.326 155.091 695.8 327.754C739.418 497.091 587.108 683.68 412.77 697.254C264.389 708.807 136.821 619.818 103.322 474.806C68.1368 322.491 176.432 165.652 326.726 122.646C494.625 74.6035 699.213 154.162 718.294 327.754" stroke="white" stroke-width="5"/>
<path d="M245.474 640.884C235.171 638.631 236.061 613.487 227.02 609.905C217.068 605.963 210.55 611.78 203.403 621.156C199.051 626.866 190.169 637.655 183.259 649.331C176.823 660.208 170.3 674.668 169.016 678.493C167.732 682.317 166.865 688.815 172.501 693.56C177.424 697.705 185.357 694.757 188.503 691.622C191.648 688.488 203.136 671.5 208.175 656.502C213.818 639.703 215.249 618.416 215.013 614.944C214.777 611.471 213.194 598.903 204.982 596.099C196.77 593.296 189.229 596.784 182.906 601.205C163.023 615.108 152.095 623.111 139.728 644.114C137.836 648.225 134.325 656.594 138.826 660.784C143.694 665.313 151.804 661.134 156.595 656.674C160.796 652.763 168.164 646.151 172.926 634.084C179.611 617.141 181.184 598.664 181.228 593.951C181.273 589.237 180.461 581.313 173.716 578.639C166.233 575.674 160.727 582.016 153.9 586.162C139.822 594.712 123.29 613.23 122.471 614.595C121.653 615.96 111.974 630.522 120.118 636.304C124.619 639.5 132.76 634.556 139.008 627.232C145.255 619.908 161.608 578.301 153.901 569.501" stroke="white" stroke-width="5"/>
</svg>
