<svg width="195" height="263" viewBox="0 0 195 263" fill="none" xmlns="http://www.w3.org/2000/svg">
<path d="M292.457 83.7526C292.457 83.7526 133.709 -0.000696796 118.694 32.2406C103.68 64.4819 244.313 133.563 253.286 136.46C262.724 139.507 272.411 138.63 275.818 132.619C279.491 126.138 278.093 117.416 272.216 111.488C270.062 109.316 244.04 86.5728 207.84 73.8934C167.069 59.6127 117.694 51.6445 109.748 52.9991C101.803 54.3538 93.1796 57.034 86.9749 71.1141C80.1452 86.6123 87.9458 98.4514 101.778 110.864C110.201 118.422 126.064 133.759 143.445 146.033C159.635 157.467 181.319 169.416 187.089 171.872C192.858 174.327 202.764 176.395 210.487 167.883C217.234 160.446 213.33 147.452 208.766 142.093C204.201 136.734 179.026 116.581 156.401 106.948C131.059 96.159 98.4995 91.6351 93.1509 91.6475C87.8023 91.66 68.3894 92.8709 63.4433 105.707C58.4973 118.542 63.2618 130.967 69.5526 141.541C89.3357 174.794 100.763 193.108 132.031 215.089C138.194 218.546 150.764 225.04 157.546 218.282C164.879 210.976 159.1 197.568 152.629 189.439C146.955 182.312 137.383 169.835 119.235 160.954C93.7539 148.484 65.5177 144.029 58.2868 143.462C51.0559 142.896 38.8293 143.36 34.1985 153.865C29.0612 165.519 38.3653 174.989 44.1938 186.339C56.2149 209.749 83.3437 238.128 85.3749 239.581C87.4061 241.033 108.997 258.039 118.51 245.624C123.767 238.763 116.816 225.226 106.064 214.467C95.3115 203.708 37.0297 170.472 22.921 181.871" stroke="white" stroke-width="4"/>
<path d="M36.7384 78.7441L61.3567 96.4145L85.221 77.7383L67.5506 102.357L86.2268 126.221L61.6085 108.55L37.7442 127.227L55.4146 102.608L36.7384 78.7441Z" fill="#CBE896"/>
</svg>
