<svg width="121" height="121" viewBox="0 0 121 121" fill="none" xmlns="http://www.w3.org/2000/svg">
<path d="M60.5 0L65.6422 37.9704L86.75 5.99138L74.9082 42.4327L107.801 22.7789L81.3204 50.4734L119.483 47.0375L83.6089 60.5L119.483 73.9625L81.3204 70.5266L107.801 98.2211L74.9082 78.5673L86.75 115.009L65.6422 83.0296L60.5 121L55.3578 83.0296L34.25 115.009L46.0918 78.5673L13.1992 98.2211L39.6796 70.5266L1.51686 73.9625L37.3911 60.5L1.51686 47.0375L39.6796 50.4734L13.1992 22.7789L46.0918 42.4327L34.25 5.99138L55.3578 37.9704L60.5 0Z" fill="#CBE896"/>
</svg>
