<svg width="390" height="458" viewBox="0 0 390 458" fill="none" xmlns="http://www.w3.org/2000/svg">
<path d="M39.6606 253.384L41.5415 283.629L71.1008 290.304L40.8557 292.185L34.1809 321.744L32.2999 291.499L2.74061 284.824L32.9857 282.943L39.6606 253.384Z" fill="#CBE896"/>
<path d="M287.499 377.144C207.612 414.647 71.6579 366.681 37.5866 285.272C5.00992 207.433 58.2647 129.482 132.798 89.9231C221.402 42.8951 339.822 87.2547 364.844 184.396C389.383 279.666 303.693 384.641 205.61 392.278C122.13 398.778 50.3598 348.712 31.5133 267.128C11.7177 181.435 72.645 93.1966 157.201 69.0015C251.662 41.9723 366.764 86.7322 377.499 184.396" stroke="white" stroke-width="4"/>
<path d="M153.5 388.82C143.928 387.144 143.884 364.084 135.428 361.144C126.122 357.907 120.315 363.479 114.051 372.333C110.237 377.725 102.423 387.938 96.4569 398.89C90.8999 409.092 85.3861 422.579 84.3341 426.129C83.2821 429.68 82.7074 435.663 88.0639 439.796C92.7436 443.407 99.9525 440.41 102.744 437.422C105.535 434.433 115.537 418.445 119.665 404.522C124.288 388.927 124.874 369.38 124.537 366.208C124.2 363.037 122.309 351.588 114.645 349.328C106.98 347.069 100.151 350.547 94.476 354.832C76.6309 368.31 66.8355 376.048 56.1612 395.746C54.5592 399.582 51.6112 407.378 55.9037 411.045C60.5448 415.01 67.8757 410.879 72.1371 406.615C75.8736 402.876 82.4367 396.544 86.4095 385.316C91.9876 369.549 92.8012 352.57 92.6802 348.252C92.5591 343.934 91.5386 336.707 85.2305 334.512C78.2322 332.077 73.3762 338.092 67.2282 342.145C54.5482 350.503 39.9501 368.081 39.2426 369.362C38.5351 370.643 30.1163 384.34 37.8206 389.33C42.0788 392.087 49.4112 387.254 54.9166 380.313C60.422 373.372 75.8839 337.063 68.4782 329.294" stroke="white" stroke-width="4"/>
</svg>
