<svg width="1280" height="832" viewBox="0 0 1280 832" fill="none" xmlns="http://www.w3.org/2000/svg">
<path d="M1100 513L1116.17 600.232L1180.53 539.165L1142.34 619.242L1230.29 607.665L1152.33 650L1230.29 692.335L1142.34 680.758L1180.53 760.835L1116.17 699.768L1100 787L1083.83 699.768L1019.47 760.835L1057.66 680.758L969.705 692.335L1047.67 650L969.705 607.665L1057.66 619.242L1019.47 539.165L1083.83 600.232L1100 513Z" fill="#CBE896"/>
<path d="M215 474L229.518 575.482L331 590L229.518 604.519L215 706.001L200.482 604.519L99 590L200.482 575.482L215 474Z" fill="white"/>
<path d="M347.405 665L354.339 713.471L402.809 720.405L354.339 727.339L347.405 775.81L340.47 727.339L292 720.405L340.47 713.471L347.405 665Z" fill="#CBE896"/>
<path d="M1036.89 57.7542L1082.42 90.4285L1126.54 55.8945L1093.87 101.416L1128.4 145.543L1082.88 112.869L1038.75 147.403L1071.43 101.882L1036.89 57.7542Z" fill="#CBE896"/>
<path d="M0 452L-24.7871 318.287L-123.435 411.894L-64.8936 289.148L-199.722 306.894L-80.2129 242L-199.722 177.106L-64.8936 194.852L-123.435 72.1064L-24.7871 165.713L0 32L24.7871 165.713L123.435 72.1064L64.8936 194.852L199.722 177.106L80.2129 242L199.722 306.894L64.8936 289.148L123.435 411.894L24.7871 318.287L0 452Z" fill="#CBE896"/>
<ellipse cx="26.5" cy="452" rx="8.5" ry="8" fill="white"/>
<ellipse cx="447.5" cy="62" rx="8.5" ry="8" fill="white"/>
<path d="M229.688 1120.6C229.688 1120.6 327.486 837.818 270.561 821.244C213.635 804.669 135.424 1053.88 132.923 1069.4C130.293 1085.72 134.19 1101.46 144.958 1105.55C156.566 1109.96 170.584 1105.45 178.863 1094.27C181.897 1090.17 212.78 1041.53 224.505 978.676C237.71 907.881 238.336 824.509 234.092 811.76C229.847 799.011 223.247 785.482 198.477 778.824C171.211 771.495 153.679 787.346 136.73 813.28C126.409 829.073 105.157 859.095 89.3337 890.841C74.5945 920.413 60.3969 959.168 57.8123 969.296C55.2276 979.424 54.3293 996.269 70.3102 1006.84C84.2724 1016.07 104.693 1006.35 112.368 997.471C120.042 988.593 146.873 942.009 157.015 902.291C168.374 857.804 167.583 803.009 166.208 794.2C164.833 785.39 157.922 753.71 135.52 748.811C113.118 743.912 93.8522 754.909 78.0224 767.952C28.2418 808.969 0.959707 832.436 -27.3396 889.523C-31.475 900.552 -38.9915 922.908 -26.1397 932.371C-12.2441 942.603 8.38451 929.686 20.1393 916.965C30.4464 905.811 48.5803 886.881 58.6178 854.729C72.7111 809.587 72.9026 761.934 72.0049 749.876C71.1072 737.818 67.2449 717.79 48.7638 712.82C28.261 707.307 15.013 725.035 -2.21267 737.513C-37.7396 763.248 -77.6302 815.135 -79.509 818.85" stroke="white" stroke-width="5"/>
<path d="M1468.34 106.313C1468.34 106.313 1219.23 -59.4191 1188.88 -8.4864C1158.52 42.4463 1380.08 180.784 1394.47 187.104C1409.61 193.752 1425.82 193.936 1432.49 184.542C1439.68 174.415 1438.83 159.714 1430.09 148.889C1426.88 144.922 1387.57 102.806 1329.68 75.6598C1264.47 45.085 1183.94 23.5248 1170.53 24.4284C1157.12 25.332 1142.37 28.3196 1129.7 50.6219C1115.75 75.1705 1126.69 96.1235 1147.53 119.046C1160.22 133.005 1183.94 161.121 1210.69 184.416C1235.61 206.114 1269.55 229.597 1278.7 234.644C1287.86 239.691 1303.94 244.794 1318.18 231.983C1330.63 220.79 1326.35 198.581 1319.69 188.921C1313.02 179.262 1274.68 141.584 1238.78 121.785C1198.58 99.6086 1145.34 86.6028 1136.47 85.7194C1127.6 84.8359 1095.2 83.563 1084.83 104.014C1074.45 124.465 1080.26 145.877 1088.9 164.477C1116.09 222.969 1131.95 255.273 1180.09 297.012C1189.72 303.787 1209.47 316.681 1221.86 306.62C1235.26 295.742 1227.94 272.529 1218.58 257.955C1210.38 245.175 1196.61 222.865 1168.02 205.069C1127.87 180.082 1081.79 167.92 1069.89 165.758C1058 163.596 1037.64 162.301 1028.19 178.94C1017.7 197.399 1031.53 214.677 1039.27 234.486C1055.25 275.341 1095.45 326.992 1098.57 329.744" stroke="white" stroke-width="5"/>
<path d="M782.323 682.354C640.329 749.014 398.677 663.757 338.117 519.056C280.214 380.702 374.872 242.148 507.35 171.834C664.841 88.2437 875.326 167.091 919.8 339.754C963.418 509.091 811.108 695.68 636.77 709.254C488.389 720.807 360.821 631.818 327.322 486.806C292.137 334.491 400.432 177.652 550.726 134.646C718.625 86.6035 923.213 166.162 942.294 339.754" stroke="white" stroke-width="5"/>
<path d="M469.474 652.884C459.171 650.631 460.061 625.487 451.02 621.905C441.068 617.963 434.55 623.78 427.403 633.156C423.051 638.866 414.169 649.655 407.259 661.331C400.823 672.208 394.3 686.668 393.016 690.493C391.732 694.317 390.865 700.815 396.501 705.56C401.424 709.705 409.357 706.757 412.503 703.622C415.648 700.488 427.136 683.5 432.175 668.502C437.818 651.703 439.249 630.416 439.013 626.944C438.777 623.471 437.194 610.903 428.982 608.099C420.77 605.296 413.229 608.784 406.906 613.205C387.023 627.108 376.095 635.111 363.728 656.114C361.836 660.225 358.325 668.594 362.826 672.784C367.694 677.313 375.804 673.134 380.595 668.674C384.796 664.763 392.164 658.151 396.926 646.084C403.611 629.141 405.184 610.664 405.228 605.951C405.273 601.237 404.461 593.313 397.716 590.639C390.233 587.674 384.727 594.016 377.9 598.162C363.822 606.712 347.29 625.23 346.471 626.595C345.653 627.96 335.974 642.522 344.118 648.304C348.619 651.5 356.76 646.556 363.008 639.232C369.255 631.908 385.608 590.301 377.901 581.501" stroke="white" stroke-width="5"/>
<path d="M898.451 737.887L881.873 774.322L912.199 800.451L875.763 783.873L849.635 814.199L866.212 777.764L835.887 751.635L872.322 768.213L898.451 737.887Z" fill="white"/>
<path d="M239.283 21.3297L289.356 57.2709L337.895 19.284L301.954 69.357L339.941 117.896L289.868 81.9551L241.329 119.942L277.27 69.869L239.283 21.3297Z" fill="white"/>
</svg>
