<svg width="105" height="213" viewBox="0 0 105 213" fill="none" xmlns="http://www.w3.org/2000/svg">
<path d="M0.5 0L9.55202 66.8405L46.7086 10.5468L25.8632 74.6956L83.765 40.0983L37.1508 88.8499L104.33 82.8015L41.1794 106.5L104.33 130.198L37.1508 124.15L83.765 172.902L25.8632 138.304L46.7086 202.453L9.55202 146.159L0.5 213L-8.55202 146.159L-45.7086 202.453L-24.8632 138.304L-82.7651 172.902L-36.1509 124.15L-103.33 130.198L-40.1794 106.5L-103.33 82.8015L-36.1509 88.8499L-82.7651 40.0983L-24.8632 74.6956L-45.7086 10.5468L-8.55202 66.8405L0.5 0Z" fill="#CBE896"/>
</svg>
