<svg width="330" height="338" viewBox="0 0 330 338" fill="none" xmlns="http://www.w3.org/2000/svg">
<path d="M165 0L179.364 106.066L238.326 16.7363L205.248 118.531L297.13 63.6302L223.16 140.992L329.763 131.394L229.552 169L329.763 206.606L223.16 197.008L297.13 274.37L205.248 219.469L238.326 321.264L179.364 231.934L165 338L150.636 231.934L91.6736 321.264L124.752 219.469L32.8705 274.37L106.84 197.008L0.237183 206.606L100.448 169L0.237183 131.394L106.84 140.992L32.8705 63.6302L124.752 118.531L91.6736 16.7363L150.636 106.066L165 0Z" fill="#CBE896"/>
</svg>
