<svg width="205" height="420" viewBox="0 0 205 420" fill="none" xmlns="http://www.w3.org/2000/svg">
<path d="M0 420L-17.849 288.202L-91.1156 399.203L-50.0119 272.713L-164.185 340.933L-72.2693 244.803L-204.735 256.729L-80.2129 210L-204.735 163.271L-72.2693 175.197L-164.185 79.0671L-50.0119 147.287L-91.1156 20.7965L-17.849 131.798L0 0L17.849 131.798L91.1156 20.7965L50.0119 147.287L164.185 79.0671L72.2693 175.197L204.735 163.271L80.2129 210L204.735 256.729L72.2693 244.803L164.185 340.933L50.0119 272.713L91.1156 399.203L17.849 288.202L0 420Z" fill="#CBE896"/>
</svg>
