<svg width="119" height="121" viewBox="0 0 119 121" fill="none" xmlns="http://www.w3.org/2000/svg">
<path d="M59.5 0L64.6422 37.9704L85.75 5.99138L73.9082 42.4327L106.801 22.7789L80.3204 50.4734L118.483 47.0375L82.6089 60.5L118.483 73.9625L80.3204 70.5266L106.801 98.2211L73.9082 78.5673L85.75 115.009L64.6422 83.0296L59.5 121L54.3578 83.0296L33.25 115.009L45.0918 78.5673L12.1992 98.2211L38.6796 70.5266L0.516861 73.9625L36.3911 60.5L0.516861 47.0375L38.6796 50.4734L12.1992 22.7789L45.0918 42.4327L33.25 5.99138L54.3578 37.9704L59.5 0Z" fill="#CBE896"/>
</svg>
