<svg width="177" height="181" viewBox="0 0 177 181" fill="none" xmlns="http://www.w3.org/2000/svg">
<path d="M46.8434 10.533L79.6966 57.1134L85.5993 0.419283L94.9885 56.6413L124.905 8.12269L108.971 62.8508L156.976 32.1175L118.874 74.5121L175.461 67.6511L122.737 89.3155L176.697 107.686L119.795 104.329L160.44 144.292L110.63 116.579L129.91 170.22L97.0571 123.639L91.1544 180.334L81.7653 124.112L51.8484 172.63L67.7829 117.902L19.7773 148.635L57.8794 106.241L1.29321 113.102L54.0163 91.4373L0.0570877 73.067L56.9587 76.4238L16.3138 36.4606L66.1239 64.1737L46.8434 10.533Z" fill="#CBE896"/>
</svg>
