<svg width="122" height="116" viewBox="0 0 122 116" fill="none" xmlns="http://www.w3.org/2000/svg">
<path d="M121.5 61.1759C111.928 59.5 111.883 36.4406 103.428 33.5C94.1213 30.2632 88.3145 35.8348 82.0511 44.6893C78.2369 50.0813 70.4222 60.2942 64.4566 71.2462C58.8996 81.4479 53.3857 94.935 52.3337 98.4854C51.2817 102.036 50.7071 108.019 56.0635 112.152C60.7433 115.763 67.9522 112.766 70.7434 109.778C73.5346 106.789 83.5366 90.8016 87.6642 76.8781C92.2873 61.283 92.8733 41.7359 92.5364 38.5645C92.1995 35.3932 90.3082 23.9439 82.6442 21.6844C74.9801 19.4249 68.1502 22.9027 62.4756 27.1885C44.6305 40.6664 34.8351 48.4046 24.1608 68.1022C22.5588 71.9381 19.6108 79.7339 23.9033 83.4012C28.5444 87.3663 35.8753 83.2353 40.1367 78.971C43.8733 75.2318 50.4364 68.9006 54.4092 57.6717C59.9872 41.9056 60.8009 24.9262 60.6798 20.6082C60.5587 16.2901 59.5383 9.06353 53.2301 6.86866C46.2318 4.43367 41.3759 10.4486 35.2278 14.501C22.5479 22.8588 7.94977 40.4373 7.24227 41.7181C6.53477 42.999 -1.88406 56.6964 5.82028 61.6859C10.0784 64.4436 17.4108 59.6106 22.9162 52.6693C28.4217 45.728 43.8835 9.41938 36.4778 1.65057" stroke="white" stroke-width="4"/>
</svg>
