<svg width="174" height="231" viewBox="0 0 174 231" fill="none" xmlns="http://www.w3.org/2000/svg">
<path d="M271.457 61.7527C271.457 61.7527 112.709 -22.0006 97.6945 10.2407C82.68 42.482 223.313 111.563 232.286 114.46C241.724 117.507 251.411 116.631 254.818 110.619C258.491 104.138 257.093 95.4162 251.216 89.4883C249.062 87.3156 223.04 64.573 186.84 51.8936C146.069 37.6129 96.6943 29.6446 88.7484 30.9993C80.8025 32.3539 72.1796 35.0341 65.9749 49.1142C59.1452 64.6124 66.9458 76.4516 80.7777 88.8639C89.2006 96.4223 105.064 111.759 122.445 124.033C138.635 135.467 160.319 147.416 166.089 149.872C171.858 152.327 181.764 154.395 189.487 145.883C196.234 138.446 192.33 125.452 187.766 120.093C183.201 114.734 158.026 94.5806 135.401 84.9481C110.059 74.1591 77.4995 69.6352 72.1509 69.6477C66.8023 69.6601 47.3894 70.871 42.4433 83.7066C37.4973 96.5423 42.2618 108.967 48.5526 119.541C68.3357 152.794 79.763 171.109 111.031 193.089C117.194 196.546 129.764 203.04 136.546 196.283C143.879 188.976 138.1 175.568 131.629 167.44C125.955 160.312 116.383 147.835 98.2351 138.954C72.7539 126.485 44.5177 122.029 37.2868 121.462C30.0559 120.896 17.8293 121.361 13.1985 131.865C8.06118 143.519 17.3653 152.989 23.1938 164.34C35.2149 187.749 62.3437 216.128 64.3749 217.581C66.4061 219.033 87.9975 236.039 97.5097 223.625C102.767 216.763 95.8156 203.226 85.0636 192.467C74.3115 181.708 16.0297 148.472 1.92096 159.871" stroke="white" stroke-width="4"/>
</svg>
