<svg width="341" height="241" viewBox="0 0 341 241" fill="none" xmlns="http://www.w3.org/2000/svg">
<path d="M279.688 411.595C279.688 411.595 377.486 128.818 320.561 112.243C263.635 95.6685 185.424 344.883 182.923 360.401C180.293 376.722 184.19 392.462 194.958 396.553C206.566 400.964 220.584 396.451 228.863 385.266C231.897 381.167 262.78 332.532 274.505 269.675C287.71 198.881 288.336 115.509 284.092 102.76C279.847 90.0102 273.247 76.4811 248.477 69.8233C221.211 62.4949 203.679 78.3459 186.73 104.28C176.409 120.072 155.157 150.094 139.334 181.841C124.594 211.412 110.397 250.167 107.812 260.295C105.228 270.423 104.329 287.269 120.31 297.838C134.272 307.072 154.693 297.349 162.368 288.471C170.042 279.592 196.873 233.009 207.015 193.29C218.374 148.803 217.583 94.0089 216.208 85.1992C214.833 76.3895 207.922 44.7098 185.52 39.8107C163.118 34.9117 143.852 45.9086 128.022 58.9516C78.2418 99.9689 50.9597 123.435 22.6604 180.522C18.525 191.551 11.0085 213.908 23.8603 223.371C37.7559 233.603 58.3845 220.685 70.1393 207.965C80.4464 196.811 98.5803 177.88 108.618 145.729C122.711 100.586 122.903 52.9332 122.005 40.8755C121.107 28.8178 117.245 8.7898 98.7638 3.81993C78.261 -1.69362 65.013 16.0349 47.7873 28.5128C12.2604 54.2478 -27.6302 106.135 -29.509 109.849" stroke="white" stroke-width="5"/>
</svg>
