<svg width="291" height="123" viewBox="0 0 291 123" fill="none" xmlns="http://www.w3.org/2000/svg">
<path d="M229.688 411.31C229.688 411.31 327.486 128.533 270.561 111.959C213.635 95.3844 135.424 344.599 132.923 360.117C130.293 376.438 134.19 392.178 144.958 396.269C156.566 400.679 170.584 396.167 178.863 384.982C181.897 380.883 212.78 332.247 224.505 269.391C237.71 198.596 238.336 115.225 234.092 102.475C229.847 89.7261 223.247 76.1969 198.477 69.5391C171.211 62.2107 153.679 78.0617 136.73 103.996C126.409 119.788 105.157 149.81 89.3337 181.557C74.5945 211.128 60.3969 249.883 57.8123 260.011C55.2276 270.139 54.3293 286.985 70.3102 297.554C84.2724 306.788 104.693 297.065 112.368 288.187C120.042 279.308 146.873 232.725 157.015 193.006C168.374 148.519 167.583 93.7247 166.208 84.915C164.833 76.1053 157.922 44.4256 135.52 39.5266C113.118 34.6275 93.8522 45.6244 78.0224 58.6675C28.2418 99.6847 0.959707 123.151 -27.3396 180.238C-31.475 191.267 -38.9915 213.623 -26.1397 223.087C-12.2441 233.318 8.38451 220.401 20.1393 207.68C30.4464 196.526 48.5803 177.596 58.6178 145.445C72.7111 100.302 72.9026 52.649 72.0049 40.5913C71.1072 28.5336 67.2449 8.50562 48.7638 3.53575C28.261 -1.9778 15.013 15.7507 -2.21267 28.2286C-37.7396 53.9636 -77.6302 105.85 -79.509 109.565" stroke="white" stroke-width="5"/>
</svg>
