<svg width="310" height="346" viewBox="0 0 310 346" fill="none" xmlns="http://www.w3.org/2000/svg">
<path d="M447.344 120.313C447.344 120.313 198.225 -45.4188 167.875 5.51384C137.525 56.4465 359.082 194.784 373.473 201.105C388.609 207.753 404.823 207.937 411.49 198.542C418.676 188.416 417.832 173.714 409.087 162.89C405.882 158.922 366.57 116.807 308.678 89.6601C243.475 59.0852 162.937 37.5251 149.53 38.4287C136.123 39.3323 121.37 42.3198 108.7 64.6221C94.7534 89.1707 105.689 110.124 126.531 133.047C139.222 147.006 162.939 175.121 189.689 198.416C214.607 220.114 248.55 243.597 257.703 248.644C266.856 253.691 282.935 258.795 297.182 245.983C309.628 234.79 305.351 212.581 298.686 202.922C292.021 193.262 253.677 155.584 217.782 135.785C177.578 113.609 124.344 100.603 115.472 99.7196C106.599 98.8362 74.1992 97.5632 63.827 118.014C53.4548 138.466 59.2563 159.877 67.9021 178.477C95.0908 236.969 110.947 269.273 159.089 311.012C168.724 317.787 188.474 330.681 200.863 320.621C214.259 309.743 206.941 286.53 197.583 271.955C189.378 259.175 175.613 236.866 147.017 219.069C106.865 194.082 60.79 181.92 48.8937 179.758C36.9975 177.597 16.6417 176.301 7.18633 192.94C-3.30339 211.399 10.5263 228.677 18.2742 248.486C34.2538 289.341 74.4489 340.992 77.572 343.744" stroke="white" stroke-width="5"/>
</svg>
