<svg width="132" height="132" viewBox="0 0 132 132" fill="none" xmlns="http://www.w3.org/2000/svg">
<path d="M131.475 73.8824C121.172 71.6301 122.062 46.4856 113.021 42.904C103.069 38.9616 96.5507 44.7787 89.4041 54.155C85.0521 59.8647 76.1695 70.6533 69.2602 82.3298C62.8242 93.2064 56.3012 107.667 55.0169 111.491C53.7326 115.316 52.8664 121.814 58.5017 126.559C63.4251 130.704 71.3577 127.756 74.5035 124.621C77.6493 121.487 89.1369 104.499 94.1757 89.5008C99.8193 72.7022 101.25 51.4152 101.014 47.9424C100.778 44.4697 99.1948 31.9021 90.983 29.0983C82.7712 26.2944 75.2297 29.7831 68.907 34.2042C49.0239 48.1073 38.096 56.1097 25.7291 77.1128C23.8372 81.2241 20.3259 89.5932 24.8274 93.7823C29.6945 98.3117 37.8054 94.1331 42.596 89.6727C46.7967 85.7617 54.1653 79.1499 58.9266 67.083C65.612 50.1402 67.1846 31.6631 67.2291 26.9496C67.2737 22.2362 66.4622 14.3114 59.7168 11.6382C52.2336 8.67257 46.7275 15.0152 39.9014 19.1608C25.8229 27.7107 9.29088 46.229 8.4722 47.5941C7.65352 48.9593 -2.02548 63.5203 6.11884 69.3026C10.6202 72.4985 18.7613 67.5544 25.0087 60.2305C31.2562 52.9066 47.6093 11.2995 39.9017 2.50012" stroke="white" stroke-width="5"/>
</svg>
