<svg width="21" height="14" viewBox="0 0 21 14" fill="none" xmlns="http://www.w3.org/2000/svg">
<path fill-rule="evenodd" clip-rule="evenodd" d="M1.53659 10.7692C1.94411 10.7692 2.33495 10.9394 2.62312 11.2424C2.91128 11.5453 3.07317 11.9562 3.07317 12.3846C3.07317 12.813 2.91128 13.2239 2.62312 13.5269C2.33495 13.8298 1.94411 14 1.53659 14C1.12906 14 0.738221 13.8298 0.450055 13.5269C0.16189 13.2239 0 12.813 0 12.3846C0 11.9562 0.16189 11.5453 0.450055 11.2424C0.738221 10.9394 1.12906 10.7692 1.53659 10.7692ZM19.9746 11.3077C20.5411 11.3077 21 11.7858 21 12.3846C21 12.9796 20.5441 13.4615 19.9746 13.4615H5.63517C5.50048 13.462 5.36704 13.4344 5.24252 13.3805C5.11799 13.3265 5.00484 13.2472 4.90955 13.1471C4.81427 13.0471 4.73873 12.9282 4.68728 12.7973C4.63583 12.6665 4.60949 12.5262 4.60976 12.3846C4.60976 11.7896 5.06561 11.3077 5.63517 11.3077H19.9746ZM1.53659 5.38462C1.94411 5.38462 2.33495 5.55481 2.62312 5.85775C2.91128 6.16069 3.07317 6.57157 3.07317 7C3.07317 7.42843 2.91128 7.83931 2.62312 8.14225C2.33495 8.44519 1.94411 8.61539 1.53659 8.61539C1.12906 8.61539 0.738221 8.44519 0.450055 8.14225C0.16189 7.83931 0 7.42843 0 7C0 6.57157 0.16189 6.16069 0.450055 5.85775C0.738221 5.55481 1.12906 5.38462 1.53659 5.38462ZM19.9746 5.92308C20.5411 5.92308 21 6.40123 21 7C21 7.595 20.5441 8.07692 19.9746 8.07692H5.63517C5.50048 8.07735 5.36704 8.04979 5.24252 7.99584C5.11799 7.94188 5.00484 7.86259 4.90955 7.76252C4.81427 7.66244 4.73873 7.54356 4.68728 7.41271C4.63583 7.28185 4.60949 7.14159 4.60976 7C4.60976 6.405 5.06561 5.92308 5.63517 5.92308H19.9746ZM1.53659 0C1.94411 0 2.33495 0.170192 2.62312 0.473135C2.91128 0.776078 3.07317 1.18696 3.07317 1.61538C3.07317 2.04381 2.91128 2.45469 2.62312 2.75763C2.33495 3.06058 1.94411 3.23077 1.53659 3.23077C1.12906 3.23077 0.738221 3.06058 0.450055 2.75763C0.16189 2.45469 0 2.04381 0 1.61538C0 1.18696 0.16189 0.776078 0.450055 0.473135C0.738221 0.170192 1.12906 0 1.53659 0ZM19.9746 0.538462C20.5411 0.538462 21 1.01662 21 1.61538C21 2.21038 20.5441 2.69231 19.9746 2.69231H5.63517C5.50048 2.69273 5.36704 2.66518 5.24252 2.61122C5.11799 2.55726 5.00484 2.47797 4.90955 2.3779C4.81427 2.27783 4.73873 2.15895 4.68728 2.02809C4.63583 1.89723 4.60949 1.75698 4.60976 1.61538C4.60976 1.02038 5.06561 0.538462 5.63517 0.538462H19.9746Z" fill="white"/>
</svg>
