<svg width="17" height="17" viewBox="0 0 17 17" fill="none" xmlns="http://www.w3.org/2000/svg">
<path d="M7.79199 6.3763H9.20866V4.95964H7.79199M8.50033 14.168C5.37658 14.168 2.83366 11.6251 2.83366 8.5013C2.83366 5.37755 5.37658 2.83464 8.50033 2.83464C11.6241 2.83464 14.167 5.37755 14.167 8.5013C14.167 11.6251 11.6241 14.168 8.50033 14.168ZM8.50033 1.41797C7.57013 1.41797 6.64904 1.60118 5.78965 1.95716C4.93026 2.31313 4.1494 2.83488 3.49165 3.49263C2.16327 4.82101 1.41699 6.62268 1.41699 8.5013C1.41699 10.3799 2.16327 12.1816 3.49165 13.51C4.1494 14.1677 4.93026 14.6895 5.78965 15.0454C6.64904 15.4014 7.57013 15.5846 8.50033 15.5846C10.3789 15.5846 12.1806 14.8384 13.509 13.51C14.8374 12.1816 15.5837 10.3799 15.5837 8.5013C15.5837 7.57111 15.4004 6.65002 15.0445 5.79063C14.6885 4.93124 14.1667 4.15038 13.509 3.49263C12.8512 2.83488 12.0704 2.31313 11.211 1.95716C10.3516 1.60118 9.43052 1.41797 8.50033 1.41797ZM7.79199 12.043H9.20866V7.79297H7.79199V12.043Z" fill="#7D7D7D"/>
</svg>
