<svg width="50" height="20" viewBox="0 0 50 20" fill="none" xmlns="http://www.w3.org/2000/svg">
<path d="M14.448 10.976C14.3307 12.032 13.968 12.96 13.36 13.76C12.752 14.5493 11.952 15.1627 10.96 15.6C9.97867 16.0373 8.848 16.256 7.568 16.256C6.17067 16.256 4.94933 15.9947 3.904 15.472C2.85867 14.9493 2.04267 14.2187 1.456 13.28C0.88 12.3413 0.592 11.248 0.592 10C0.592 8.752 0.88 7.65867 1.456 6.72C2.04267 5.78133 2.85867 5.05067 3.904 4.528C4.94933 4.00533 6.17067 3.744 7.568 3.744C8.848 3.744 9.97867 3.96267 10.96 4.4C11.952 4.83733 12.752 5.456 13.36 6.256C13.968 7.04533 14.3307 7.968 14.448 9.024H11.12C11.0133 8.512 10.8053 8.08 10.496 7.728C10.1867 7.36533 9.78133 7.088 9.28 6.896C8.78933 6.704 8.21867 6.608 7.568 6.608C6.82133 6.608 6.176 6.74667 5.632 7.024C5.088 7.29067 4.672 7.68 4.384 8.192C4.096 8.69333 3.952 9.296 3.952 10C3.952 10.704 4.096 11.312 4.384 11.824C4.672 12.3253 5.088 12.7147 5.632 12.992C6.176 13.2587 6.82133 13.392 7.568 13.392C8.21867 13.392 8.78933 13.3013 9.28 13.12C9.78133 12.9387 10.1867 12.6667 10.496 12.304C10.8053 11.9413 11.0133 11.4987 11.12 10.976H14.448ZM15.9466 3.68H19.2266V16H15.9466V3.68ZM21.1847 6.72L22.8327 7.04L24.4647 6.72V16H21.1847V6.72ZM22.8167 5.968C22.2514 5.968 21.7927 5.82933 21.4407 5.552C21.0887 5.264 20.9127 4.87467 20.9127 4.384C20.9127 3.904 21.0887 3.52 21.4407 3.232C21.7927 2.944 22.2514 2.8 22.8167 2.8C23.4034 2.8 23.8674 2.944 24.2087 3.232C24.5608 3.52 24.7368 3.904 24.7368 4.384C24.7368 4.87467 24.5608 5.264 24.2087 5.552C23.8674 5.82933 23.4034 5.968 22.8167 5.968ZM29.7029 13.392L28.8069 13.088L33.8629 6.864H37.3029L29.3509 16H26.4229V3.68H29.7029V13.392ZM31.2549 11.536L33.7189 9.808L37.5429 16H33.8629L31.2549 11.536Z" fill="white"/>
<path fill-rule="evenodd" clip-rule="evenodd" d="M41.7653 8.56067C41.5593 7.94337 42.1463 7.35639 42.7635 7.56237L49.4594 9.79402C50.1367 10.0196 50.191 10.9572 49.544 11.2592L46.7603 12.5577L45.4613 15.3415C45.1593 15.9885 44.2224 15.9342 43.9968 15.2569L41.7653 8.56067ZM43.2633 9.06046L44.8194 13.7291L45.6881 11.8671C45.7666 11.699 45.9017 11.5639 46.0698 11.4854L47.9323 10.6167L43.2633 9.06046Z" fill="#CBE896"/>
<path d="M45.3918 4.93394C45.5103 5.05242 45.5768 5.2131 45.5768 5.38064C45.5768 5.54818 45.5103 5.70886 45.3918 5.82735L44.4985 6.72203C44.4398 6.78074 44.3701 6.8273 44.2934 6.85907C44.2167 6.89084 44.1345 6.90719 44.0515 6.90719C43.9684 6.90719 43.8862 6.89084 43.8095 6.85907C43.7329 6.8273 43.6632 6.78074 43.6045 6.72203C43.5458 6.66333 43.4992 6.59364 43.4674 6.51693C43.4357 6.44023 43.4193 6.35803 43.4193 6.27501C43.4193 6.19199 43.4357 6.10978 43.4674 6.03308C43.4992 5.95638 43.5458 5.88669 43.6045 5.82798L44.4985 4.93457C44.6169 4.81612 44.7776 4.74957 44.9451 4.74957C45.1127 4.74957 45.2734 4.81548 45.3918 4.93394Z" fill="white"/>
<path d="M42.8962 4.27051C42.8962 4.10293 42.8296 3.94222 42.7112 3.82373C42.5927 3.70524 42.432 3.63867 42.2644 3.63867C42.0968 3.63867 41.9361 3.70524 41.8177 3.82373C41.6992 3.94222 41.6326 4.10293 41.6326 4.27051V5.53418C41.6326 5.70175 41.6992 5.86246 41.8177 5.98096C41.9361 6.09945 42.0968 6.16602 42.2644 6.16602C42.432 6.16602 42.5927 6.09945 42.7112 5.98096C42.8296 5.86246 42.8962 5.70175 42.8962 5.53418V4.27051Z" fill="white"/>
<path d="M40.0304 4.93394C39.9721 4.87359 39.9024 4.82545 39.8253 4.79234C39.7482 4.75923 39.6653 4.7418 39.5814 4.74107C39.4975 4.74034 39.4143 4.75632 39.3367 4.78809C39.259 4.81986 39.1885 4.86678 39.1292 4.9261C39.0698 4.98543 39.0229 5.05597 38.9912 5.13362C38.9594 5.21128 38.9434 5.29448 38.9441 5.37837C38.9449 5.46226 38.9623 5.54517 38.9954 5.62226C39.0285 5.69935 39.0766 5.76907 39.137 5.82735L40.0304 6.72203C40.0891 6.78078 40.1588 6.82738 40.2356 6.85917C40.3123 6.89096 40.3946 6.90733 40.4777 6.90733C40.5607 6.90733 40.643 6.89096 40.7198 6.85917C40.7965 6.82738 40.8662 6.78078 40.925 6.72203C40.9837 6.66329 41.0303 6.59354 41.0621 6.51679C41.0939 6.44004 41.1103 6.35777 41.1103 6.27469C41.1103 6.19161 41.0939 6.10935 41.0621 6.03259C41.0303 5.95584 40.9837 5.8861 40.925 5.82735L40.0304 4.93394Z" fill="white"/>
<path d="M40.9244 10.2957C40.9831 10.237 41.0296 10.1674 41.0614 10.0907C41.0932 10.0141 41.1096 9.93189 41.1096 9.8489C41.1096 9.7659 41.0933 9.68372 41.0616 9.60704C41.0299 9.53035 40.9833 9.46067 40.9247 9.40196C40.866 9.34326 40.7964 9.29668 40.7197 9.2649C40.6431 9.23311 40.5609 9.21674 40.4779 9.21671C40.3949 9.21668 40.3127 9.233 40.2361 9.26473C40.1594 9.29646 40.0897 9.34298 40.031 9.40165L39.137 10.2963C39.0185 10.4149 38.952 10.5757 38.9521 10.7433C38.9521 10.9109 39.0188 11.0716 39.1373 11.1901C39.2559 11.3085 39.4166 11.3751 39.5842 11.375C39.7518 11.3749 39.9125 11.3083 40.031 11.1897L40.9244 10.2957Z" fill="white"/>
<path d="M37.8418 8.06152C37.8418 7.89395 37.9084 7.73324 38.0268 7.61475C38.1453 7.49626 38.306 7.42969 38.4736 7.42969H39.7372C39.9048 7.42969 40.0655 7.49626 40.184 7.61475C40.3024 7.73324 40.369 7.89395 40.369 8.06152C40.369 8.2291 40.3024 8.38981 40.184 8.5083C40.0655 8.62679 39.9048 8.69336 39.7372 8.69336H38.4736C38.306 8.69336 38.1453 8.62679 38.0268 8.5083C37.9084 8.38981 37.8418 8.2291 37.8418 8.06152Z" fill="white"/>
</svg>
