<svg width="38" height="38" viewBox="0 0 38 38" fill="none" xmlns="http://www.w3.org/2000/svg">
<path d="M18.9999 4.75C19.4035 4.75045 19.7916 4.90498 20.0851 5.18201C20.3785 5.45904 20.5551 5.83768 20.5788 6.24054C20.6024 6.64341 20.4714 7.0401 20.2123 7.34957C19.9533 7.65904 19.5859 7.85792 19.1852 7.90558L18.9999 7.91667H11.0833C10.6954 7.91672 10.3211 8.0591 10.0313 8.3168C9.74152 8.5745 9.55638 8.9296 9.511 9.31475L9.49992 9.5V28.5C9.49997 28.8878 9.64235 29.2621 9.90005 29.5519C10.1578 29.8417 10.5129 30.0269 10.898 30.0723L11.0833 30.0833H18.2083C18.6118 30.0838 19 30.2383 19.2934 30.5153C19.5869 30.7924 19.7635 31.171 19.7871 31.5739C19.8108 31.9767 19.6797 32.3734 19.4207 32.6829C19.1616 32.9924 18.7942 33.1913 18.3935 33.2389L18.2083 33.25H11.0833C9.87167 33.2501 8.70585 32.7872 7.82434 31.956C6.94282 31.1248 6.41225 29.9882 6.34117 28.7787L6.33325 28.5V9.5C6.33318 8.28842 6.7961 7.1226 7.62728 6.24109C8.45847 5.35957 9.59509 4.829 10.8046 4.75792L11.0833 4.75H18.9999ZM28.036 13.4013L32.5137 17.8806C32.8105 18.1775 32.9772 18.5802 32.9772 19C32.9772 19.4198 32.8105 19.8225 32.5137 20.1194L28.036 24.5987C27.7389 24.8956 27.336 25.0623 26.916 25.0621C26.496 25.062 26.0933 24.895 25.7964 24.5979C25.4995 24.3008 25.3328 23.8979 25.3329 23.4779C25.3331 23.0579 25.5001 22.6551 25.7972 22.3583L27.5721 20.5833H18.9999C18.58 20.5833 18.1773 20.4165 17.8803 20.1196C17.5834 19.8227 17.4166 19.4199 17.4166 19C17.4166 18.5801 17.5834 18.1773 17.8803 17.8804C18.1773 17.5835 18.58 17.4167 18.9999 17.4167H27.5721L25.7972 15.6417C25.5001 15.3449 25.3331 14.9421 25.3329 14.5221C25.3328 14.1021 25.4995 13.6992 25.7964 13.4021C26.0933 13.105 26.496 12.938 26.916 12.9379C27.336 12.9377 27.7389 13.1044 28.036 13.4013Z" fill="white"/>
</svg>
