<svg width="297" height="109" viewBox="0 0 297 109" fill="none" xmlns="http://www.w3.org/2000/svg">
<path d="M111.584 65.808C110.645 74.256 107.744 81.68 102.88 88.08C98.016 94.3947 91.616 99.3013 83.68 102.8C75.8293 106.299 66.784 108.048 56.544 108.048C45.3653 108.048 35.5947 105.957 27.232 101.776C18.8693 97.5947 12.3413 91.7493 7.648 84.24C3.04 76.7307 0.736 67.984 0.736 58C0.736 48.016 3.04 39.2693 7.648 31.76C12.3413 24.2507 18.8693 18.4053 27.232 14.224C35.5947 10.0427 45.3653 7.952 56.544 7.952C66.784 7.952 75.8293 9.70133 83.68 13.2C91.616 16.6987 98.016 21.648 102.88 28.048C107.744 34.3627 110.645 41.744 111.584 50.192H84.96C84.1067 46.096 82.4427 42.64 79.968 39.824C77.4933 36.9227 74.2507 34.704 70.24 33.168C66.3147 31.632 61.7493 30.864 56.544 30.864C50.5707 30.864 45.408 31.9733 41.056 34.192C36.704 36.3253 33.376 39.44 31.072 43.536C28.768 47.5467 27.616 52.368 27.616 58C27.616 63.632 28.768 68.496 31.072 72.592C33.376 76.6027 36.704 79.7173 41.056 81.936C45.408 84.0693 50.5707 85.136 56.544 85.136C61.7493 85.136 66.3147 84.4107 70.24 82.96C74.2507 81.5093 77.4933 79.3333 79.968 76.432C82.4427 73.5307 84.1067 69.9893 84.96 65.808H111.584ZM123.573 7.43999H149.813V106H123.573V7.43999ZM165.478 31.76L178.662 34.32L191.718 31.76V106H165.478V31.76ZM178.534 25.744C174.011 25.744 170.342 24.6347 167.526 22.416C164.71 20.112 163.302 16.9973 163.302 13.072C163.302 9.232 164.71 6.16 167.526 3.856C170.342 1.55199 174.011 0.399994 178.534 0.399994C183.227 0.399994 186.939 1.55199 189.67 3.856C192.486 6.16 193.894 9.232 193.894 13.072C193.894 16.9973 192.486 20.112 189.67 22.416C186.939 24.6347 183.227 25.744 178.534 25.744ZM233.623 85.136L226.455 82.704L266.903 32.912H294.423L230.807 106H207.383V7.43999H233.623V85.136ZM246.039 70.288L265.751 56.464L296.343 106H266.903L246.039 70.288Z" fill="#1D1D1D"/>
</svg>
