<svg width="139" height="50" viewBox="0 0 139 50" fill="none" xmlns="http://www.w3.org/2000/svg">
<path d="M36.745 27.44C36.4517 30.08 35.545 32.4 34.025 34.4C32.505 36.3733 30.505 37.9067 28.025 39C25.5717 40.0933 22.745 40.64 19.545 40.64C16.0517 40.64 12.9983 39.9867 10.385 38.68C7.77167 37.3733 5.73167 35.5467 4.265 33.2C2.825 30.8533 2.105 28.12 2.105 25C2.105 21.88 2.825 19.1467 4.265 16.8C5.73167 14.4533 7.77167 12.6267 10.385 11.32C12.9983 10.0133 16.0517 9.36 19.545 9.36C22.745 9.36 25.5717 9.90667 28.025 11C30.505 12.0933 32.505 13.64 34.025 15.64C35.545 17.6133 36.4517 19.92 36.745 22.56H28.425C28.1583 21.28 27.6383 20.2 26.865 19.32C26.0917 18.4133 25.0783 17.72 23.825 17.24C22.5983 16.76 21.1717 16.52 19.545 16.52C17.6783 16.52 16.065 16.8667 14.705 17.56C13.345 18.2267 12.305 19.2 11.585 20.48C10.865 21.7333 10.505 23.24 10.505 25C10.505 26.76 10.865 28.28 11.585 29.56C12.305 30.8133 13.345 31.7867 14.705 32.48C16.065 33.1467 17.6783 33.48 19.545 33.48C21.1717 33.48 22.5983 33.2533 23.825 32.8C25.0783 32.3467 26.0917 31.6667 26.865 30.76C27.6383 29.8533 28.1583 28.7467 28.425 27.44H36.745ZM40.4916 9.2H48.6916V40H40.4916V9.2ZM53.5869 16.8L57.7069 17.6L61.7869 16.8V40H53.5869V16.8ZM57.6669 14.92C56.2535 14.92 55.1069 14.5733 54.2269 13.88C53.3469 13.16 52.9069 12.1867 52.9069 10.96C52.9069 9.76 53.3469 8.8 54.2269 8.08C55.1069 7.36 56.2535 7 57.6669 7C59.1335 7 60.2935 7.36 61.1469 8.08C62.0269 8.8 62.4669 9.76 62.4669 10.96C62.4669 12.1867 62.0269 13.16 61.1469 13.88C60.2935 14.5733 59.1335 14.92 57.6669 14.92ZM74.8822 33.48L72.6422 32.72L85.2822 17.16H93.8822L74.0022 40H66.6822V9.2H74.8822V33.48ZM78.7622 28.84L84.9222 24.52L94.4822 40H85.2822L78.7622 28.84Z" fill="white"/>
<path fill-rule="evenodd" clip-rule="evenodd" d="M118.062 21.9867C117.546 20.3833 119.018 18.8586 120.566 19.3936L137.356 25.1904C139.054 25.7763 139.19 28.2119 137.568 28.9964L130.588 32.369L127.33 39.6002C126.573 41.2808 124.224 41.1397 123.658 39.3803L118.062 21.9867ZM121.819 23.2849L125.721 35.4119L127.899 30.5752C128.096 30.1386 128.435 29.7877 128.856 29.5839L133.527 27.3272L121.819 23.2849Z" fill="#CBE896"/>
<path d="M127.156 12.5662C127.453 12.8739 127.62 13.2913 127.62 13.7265C127.62 14.1617 127.453 14.5791 127.156 14.8868L124.916 17.2108C124.769 17.3633 124.594 17.4842 124.402 17.5668C124.209 17.6493 124.003 17.6918 123.795 17.6918C123.587 17.6918 123.381 17.6493 123.189 17.5668C122.996 17.4842 122.821 17.3633 122.674 17.2108C122.527 17.0583 122.41 16.8773 122.331 16.678C122.251 16.4788 122.21 16.2653 122.21 16.0496C122.21 15.834 122.251 15.6204 122.331 15.4212C122.41 15.222 122.527 15.041 122.674 14.8885L124.916 12.5678C125.213 12.2601 125.616 12.0873 126.036 12.0873C126.456 12.0873 126.859 12.2585 127.156 12.5662Z" fill="white"/>
<path d="M120.898 10.8429C120.898 10.4076 120.731 9.99015 120.434 9.68236C120.137 9.37457 119.734 9.20166 119.314 9.20166C118.894 9.20166 118.491 9.37457 118.194 9.68236C117.897 9.99015 117.73 10.4076 117.73 10.8429V14.1253C117.73 14.5606 117.897 14.978 118.194 15.2858C118.491 15.5936 118.894 15.7665 119.314 15.7665C119.734 15.7665 120.137 15.5936 120.434 15.2858C120.731 14.978 120.898 14.5606 120.898 14.1253V10.8429Z" fill="white"/>
<path d="M113.712 12.5662C113.566 12.4094 113.391 12.2844 113.198 12.1984C113.004 12.1123 112.797 12.0671 112.586 12.0652C112.376 12.0633 112.167 12.1048 111.973 12.1873C111.778 12.2698 111.601 12.3917 111.452 12.5458C111.303 12.6999 111.186 12.8832 111.106 13.0849C111.027 13.2865 110.986 13.5027 110.988 13.7206C110.99 13.9385 111.034 14.1539 111.117 14.3541C111.2 14.5543 111.321 14.7354 111.472 14.8868L113.712 17.2108C113.859 17.3634 114.034 17.4844 114.227 17.567C114.419 17.6496 114.625 17.6921 114.834 17.6921C115.042 17.6921 115.248 17.6496 115.441 17.567C115.633 17.4844 115.808 17.3634 115.955 17.2108C116.103 17.0582 116.22 16.877 116.299 16.6777C116.379 16.4783 116.42 16.2646 116.42 16.0488C116.42 15.833 116.379 15.6193 116.299 15.42C116.22 15.2206 116.103 15.0394 115.955 14.8868L113.712 12.5662Z" fill="white"/>
<path d="M115.954 26.4935C116.101 26.3411 116.218 26.1602 116.297 25.9611C116.377 25.7619 116.418 25.5485 116.418 25.3329C116.418 25.1174 116.377 24.9039 116.298 24.7047C116.218 24.5055 116.102 24.3245 115.955 24.172C115.807 24.0195 115.633 23.8985 115.441 23.816C115.248 23.7334 115.042 23.6909 114.834 23.6908C114.626 23.6907 114.42 23.7331 114.228 23.8155C114.036 23.898 113.861 24.0188 113.714 24.1712L111.472 26.4951C111.175 26.8031 111.008 27.2207 111.008 27.6561C111.008 28.0914 111.175 28.5089 111.473 28.8166C111.77 29.1244 112.173 29.2972 112.593 29.297C113.014 29.2969 113.417 29.1238 113.714 28.8158L115.954 26.4935Z" fill="white"/>
<path d="M108.224 20.6902C108.224 20.2549 108.391 19.8374 108.688 19.5297C108.985 19.2219 109.388 19.0489 109.808 19.0489H112.977C113.397 19.0489 113.8 19.2219 114.097 19.5297C114.394 19.8374 114.561 20.2549 114.561 20.6902C114.561 21.1254 114.394 21.5429 114.097 21.8507C113.8 22.1585 113.397 22.3314 112.977 22.3314H109.808C109.388 22.3314 108.985 22.1585 108.688 21.8507C108.391 21.5429 108.224 21.1254 108.224 20.6902Z" fill="white"/>
</svg>
