<svg width="29" height="29" viewBox="0 0 29 29" fill="none" xmlns="http://www.w3.org/2000/svg">
<path d="M2.03 2.03C3.84119e-07 4.07933 0 7.35633 0 13.92V15.08C0 21.634 3.84119e-07 24.911 2.03 26.97C4.07933 29 7.35633 29 13.92 29H15.08C21.634 29 24.911 29 26.97 26.97C29 24.9207 29 21.6437 29 15.08V13.92C29 7.366 29 4.089 26.97 2.03C24.9207 3.84119e-07 21.6437 0 15.08 0H13.92C7.366 0 4.089 3.84119e-07 2.03 2.03ZM4.89133 8.82567H8.21667C8.323 14.355 10.759 16.6943 12.6923 17.1777V8.82567H15.8147V13.5913C17.719 13.3883 19.7297 11.2133 20.4063 8.816H23.519C23.265 10.0569 22.758 11.2321 22.0295 12.2683C21.301 13.3045 20.3667 14.1794 19.285 14.8383C20.4924 15.4391 21.5587 16.289 22.4135 17.3321C23.2683 18.3752 23.8922 19.5877 24.244 20.8897H20.8123C20.0777 18.5987 18.241 16.82 15.8147 16.5783V20.8897H15.428C8.816 20.8897 5.046 16.3657 4.89133 8.82567Z" fill="white"/>
</svg>
