<svg width="211" height="191" viewBox="0 0 211 191" fill="none" xmlns="http://www.w3.org/2000/svg">
<circle cx="40.9141" cy="76" r="10" fill="white"/>
<path d="M207.562 86.8802C207.562 86.8802 101.58 9.78103 87.3638 31.5139C73.1473 53.2469 167.569 117.852 173.752 120.882C180.254 124.069 187.346 124.447 190.436 120.458C193.767 116.158 193.667 109.709 190.038 104.811C188.708 103.016 172.277 83.8639 147.44 70.9218C119.466 56.3452 84.6154 45.4324 78.7316 45.5819C72.8478 45.7314 66.3363 46.7682 60.3825 56.296C53.8289 66.7833 58.2304 76.1536 66.9307 86.5677C72.2287 92.9094 82.0922 105.649 93.3716 116.334C103.878 126.287 118.302 137.186 122.215 139.563C126.128 141.94 133.071 144.468 139.541 139.123C145.193 134.453 143.729 124.655 140.989 120.305C138.25 115.955 122.16 98.7632 106.815 89.4401C89.6272 78.9976 66.5689 72.3293 62.7022 71.7799C58.8356 71.2305 44.6798 70.0791 39.7654 78.8389C34.8511 87.5987 36.9972 97.0755 40.4397 105.374C51.2653 131.471 57.6118 145.899 77.9144 165.048C82.0069 168.19 90.4133 174.195 96.02 170.019C102.082 165.505 99.3052 155.212 95.4773 148.662C92.1208 142.918 86.5062 132.902 74.3179 124.59C57.2048 112.918 37.2641 106.75 32.0975 105.586C26.931 104.422 18.0465 103.481 13.6033 110.589C8.67408 118.475 14.4094 126.291 17.4367 135.102C23.6804 153.274 40.3235 176.615 41.6398 177.877C42.9561 179.139 56.7845 193.683 64.9548 185.704C69.4705 181.294 65.86 170.786 59.2127 161.888C52.5655 152.99 13.9158 122.886 2.52959 129.652" stroke="white" stroke-opacity="0.6" stroke-width="4"/>
<rect width="23.3663" height="58.7107" transform="matrix(0.881617 0.471965 -0.617028 0.786942 178.375 0)" fill="#CBE896"/>
</svg>
