<svg width="267" height="241" viewBox="0 0 267 241" fill="none" xmlns="http://www.w3.org/2000/svg">
<path d="M55.4164 159.746C51.6605 145.188 62.6526 131 77.6872 131H190.205C205.273 131 216.271 145.247 212.456 159.824L200.416 205.824C197.767 215.943 188.625 223 178.165 223H89.5551C79.0656 223 69.9049 215.903 67.2844 205.746L55.4164 159.746Z" fill="#E9E9E9"/>
<path d="M127.324 40.3223C134.729 25.6619 156.54 28.8843 159.275 45.0429L162.65 64.9774C163.874 72.209 169.611 77.8217 176.875 78.8949L196.681 81.8211C213.022 84.2353 216.59 106.17 201.872 113.733L184.496 122.661C177.881 126.06 174.224 133.344 175.462 140.655L178.736 159.995C181.479 176.196 161.872 186.529 150.089 175.092L135.42 160.853C130.197 155.782 122.305 154.616 115.807 157.955L97.5599 167.331C82.9031 174.862 67.2171 159.315 74.6419 144.616L83.5053 127.069C86.8559 120.436 85.5182 112.414 80.2011 107.253L66.2318 93.6928C54.4001 82.2081 64.3138 62.2649 80.6544 64.6791L100.461 67.6054C107.725 68.6785 114.874 64.9695 118.188 58.4085L127.324 40.3223Z" fill="#CBE896"/>
<path d="M125.87 57C125.87 57 123.372 50.8171 122.247 46.706C121.354 43.4409 119.485 39.2421 118.994 35.8923C117.896 28.4056 116.975 25.576 120.436 18.8517C122.73 14.394 124.939 11.8445 129.493 9.76873C130.85 9.14985 133.247 8.34989 133.718 9.76873V10.4834L129.493 14.613C129.493 14.613 132.774 11.1163 135.53 9.87786C137.096 9.17381 138.652 8.23048 140.36 8.06127C141.298 7.9683 141.505 7.88882 142.172 8.55767C142.839 9.22652 142.172 10.9798 142.172 10.9798M142.172 10.9798L138.549 12.3L133.115 14.613M142.172 10.9798C142.172 10.9798 144.284 9.72646 145.19 10.4834C146.277 11.3917 146.263 11.9797 145.191 12.9055C144.104 13.8441 141.568 14.0074 141.568 14.0074M141.568 14.0074L135.53 16.4296M141.568 14.0074C141.568 14.0074 143.007 14.6812 142.775 15.9332C142.464 17.6096 139.913 17.8343 138.549 18.8517C137.071 19.9535 136.067 20.5392 134.926 21.9885C133.352 23.987 133.196 25.9945 133.115 28.5401C133.028 31.3066 135.53 35.201 135.53 35.201L141.568 50.3392" stroke="black" stroke-width="2"/>
<path d="M97.7805 153C97.7805 153 99.8943 185.936 97.7805 185.154C95.6667 184.372 95.6399 185.154 94.2683 185.154C94.2683 185.154 91.0574 188.717 89 191H94.2683M94.2683 191L97.7805 189.246M94.2683 191H113C113 191 112.035 188.136 110.659 186.908C109.516 185.888 108.432 185.987 107.146 185.154C97.5275 178.92 107.146 155.923 107.146 155.923" stroke="black" stroke-width="2"/>
<path d="M163.528 184.828V187.931L161 190H174V180" stroke="black" stroke-width="2"/>
<path d="M217.583 92H224.875L228 88V102.5L203 109" stroke="black" stroke-width="2"/>
<path d="M149 94C142.625 95.4643 141.235 97.194 145.286 103" stroke="black" stroke-width="2" stroke-linecap="round"/>
<path d="M143 123C135.563 124.302 133.941 125.839 138.667 131" stroke="black" stroke-width="2" stroke-linecap="round"/>
<path d="M159.843 118.204C163.187 115.745 163.272 114.408 161.385 112.07" stroke="black" stroke-width="2" stroke-linecap="round"/>
</svg>
