<svg width="50" height="50" viewBox="0 0 50 50" fill="none" xmlns="http://www.w3.org/2000/svg">
<path d="M25 0L27.1249 15.6903L35.8471 2.47578L30.9538 17.5342L44.5458 9.41276L33.6035 20.8568L49.3732 19.437L34.5491 25L49.3732 30.563L33.6035 29.1432L44.5458 40.5872L30.9538 32.4658L35.8471 47.5242L27.1249 34.3097L25 50L22.8751 34.3097L14.1529 47.5242L19.0462 32.4658L5.45421 40.5872L16.3965 29.1432L0.626802 30.563L15.4508 25L0.626802 19.437L16.3965 20.8568L5.45421 9.41276L19.0462 17.5342L14.1529 2.47578L22.8751 15.6903L25 0Z" fill="#CBE896"/>
</svg>
