<svg width="151" height="150" viewBox="0 0 151 150" fill="none" xmlns="http://www.w3.org/2000/svg">
<path d="M66.3238 10.3223C73.7292 -4.33806 95.5396 -1.11574 98.2752 15.0429L101.65 34.9774C102.874 42.209 108.611 47.8217 115.875 48.8949L135.681 51.8211C152.022 54.2353 155.59 76.1703 140.872 83.7327L123.496 92.6613C116.881 96.0598 113.224 103.344 114.462 110.655L117.736 129.995C120.479 146.196 100.872 156.529 89.0892 145.092L74.4205 130.853C69.1965 125.782 61.3049 124.616 54.8067 127.955L36.5599 137.331C21.9031 144.862 6.21711 129.315 13.6419 114.616L22.5053 97.0695C25.8559 90.4364 24.5182 82.4138 19.2011 77.2526L5.23179 63.6928C-6.59985 52.2081 3.31384 32.2649 19.6544 34.6791L39.4611 37.6054C46.7248 38.6785 53.8738 34.9695 57.188 28.4085L66.3238 10.3223Z" fill="#CBE896"/>
</svg>
