<svg width="78" height="78" viewBox="0 0 78 78" fill="none" xmlns="http://www.w3.org/2000/svg">
<path d="M39 0L42.3148 24.4768L55.9215 3.86221L48.2879 27.3533L69.4914 14.6839L52.4214 32.5366L77.0222 30.3217L53.8967 39L77.0222 47.6783L52.4214 45.4634L69.4914 63.3161L48.2879 50.6467L55.9215 74.1378L42.3148 53.5232L39 78L35.6852 53.5232L22.0785 74.1378L29.7121 50.6467L8.50857 63.3161L25.5786 45.4634L0.97781 47.6783L24.1033 39L0.97781 30.3217L25.5786 32.5366L8.50857 14.6839L29.7121 27.3533L22.0785 3.86221L35.6852 24.4768L39 0Z" fill="#CBE896"/>
</svg>
