<svg width="117" height="57" viewBox="0 0 117 57" fill="none" xmlns="http://www.w3.org/2000/svg">
<path d="M116.125 -16.1672C116.125 -16.1672 48.2061 -52.0003 41.7823 -38.2061C35.3585 -24.412 95.5272 5.14383 99.3662 6.38318C103.404 7.68668 107.548 7.31176 109.006 4.73973C110.577 1.96712 109.979 -1.76463 107.465 -4.30082C106.543 -5.23036 95.41 -14.9606 79.9224 -20.3854C62.4788 -26.4952 41.3544 -29.9044 37.9548 -29.3248C34.5552 -28.7452 30.866 -27.5985 28.2114 -21.5745C25.2894 -14.9437 28.6268 -9.87846 34.5446 -4.56797C38.1483 -1.33414 44.9354 5.22738 52.3716 10.4789C59.2984 15.3707 68.5758 20.4832 71.0441 21.5337C73.5125 22.5842 77.7507 23.4688 81.0548 19.827C83.9415 16.6452 82.2714 11.0861 80.3183 8.79312C78.3653 6.50018 67.5946 -2.1221 57.9147 -6.24328C47.0725 -10.8593 33.1421 -12.7948 30.8537 -12.7894C28.5654 -12.7841 20.2597 -12.2661 18.1436 -6.77444C16.0275 -1.28283 18.066 4.03314 20.7574 8.55717C29.2214 22.7841 34.1105 30.6196 47.4884 40.0239C50.1248 41.503 55.5029 44.2813 58.4045 41.3901C61.5417 38.2641 59.0693 32.5277 56.3007 29.0499C53.8731 26.0004 49.7781 20.6624 42.0136 16.8627C31.1117 11.5277 19.0311 9.62126 15.9375 9.37889C12.8438 9.13652 7.61274 9.33543 5.63151 13.8297C3.43355 18.8157 7.41422 22.8675 9.9079 27.7236C15.051 37.739 26.6578 49.8809 27.5269 50.5024C28.3959 51.1238 37.6335 58.3997 41.7032 53.0881C43.9525 50.1525 40.9785 44.3609 36.3783 39.7578C31.7781 35.1547 6.8428 20.9347 0.806515 25.812" stroke="white" stroke-width="2"/>
</svg>
