<svg width="30" height="51" viewBox="0 0 30 51" fill="none" xmlns="http://www.w3.org/2000/svg">
<path d="M8.86999 50C8.86999 50 6.37226 43.8171 5.24734 39.706C4.35392 36.4409 2.48495 32.2421 1.99392 28.8923C0.896457 21.4056 -0.0245574 18.576 3.43601 11.8517C5.73007 7.39402 7.93914 4.84452 12.4926 2.76873C13.8502 2.14985 16.2468 1.34989 16.7183 2.76873V3.4834L12.4926 7.61296C12.4926 7.61296 15.7741 4.11634 18.5297 2.87786C20.0961 2.17381 21.6516 1.23048 23.3599 1.06127C24.2984 0.968303 24.505 0.888823 25.1719 1.55767C25.8388 2.22652 25.1719 3.97979 25.1719 3.97979M25.1719 3.97979L21.5485 5.29999L16.1153 7.61296M25.1719 3.97979C25.1719 3.97979 27.2844 2.72646 28.1901 3.48339C29.2769 4.39171 29.2628 4.97969 28.1908 5.90552C27.104 6.84412 24.5681 7.00743 24.5681 7.00743M24.5681 7.00743L18.5304 9.42955M24.5681 7.00743C24.5681 7.00743 26.0074 7.68123 25.775 8.93317C25.4638 10.6096 22.9131 10.8343 21.5485 11.8517C20.0706 12.9535 19.0674 13.5392 17.9259 14.9885C16.3517 16.987 16.1959 18.9945 16.1153 21.5401C16.0277 24.3066 18.5304 28.201 18.5304 28.201L24.5681 43.3392" stroke="black" stroke-width="2"/>
</svg>
