<svg width="208" height="166" viewBox="0 0 208 166" fill="none" xmlns="http://www.w3.org/2000/svg">
<path d="M206.39 61.9659C206.39 61.9659 100.496 -15.0693 86.2913 6.64558C72.0866 28.3605 166.43 92.9118 172.608 95.9395C179.104 99.1238 186.191 99.5015 189.278 95.5159C192.606 91.2195 192.506 84.7755 188.881 79.882C187.552 78.0885 171.134 58.9521 146.317 46.0208C118.367 31.4563 83.5452 20.5525 77.6663 20.7019C71.7874 20.8513 65.2813 21.8872 59.3324 31.407C52.7842 41.8857 57.1821 51.2482 65.8752 61.6537C71.1688 67.9901 81.0241 80.7189 92.2942 91.3951C102.792 101.34 117.204 112.23 121.114 114.605C125.023 116.98 131.961 119.506 138.425 114.165C144.073 109.499 142.609 99.7091 139.872 95.3631C137.135 91.0171 121.059 73.8391 105.726 64.5236C88.5528 54.0898 65.5137 47.4271 61.6502 46.8781C57.7868 46.3292 43.6427 45.1787 38.7324 53.9313C33.8222 62.6838 35.9665 72.1528 39.4061 80.4443C50.2227 106.519 56.564 120.935 76.8498 140.069C80.9388 143.208 89.3383 149.208 94.9403 145.036C100.997 140.525 98.2229 130.241 94.3981 123.696C91.0444 117.957 85.4344 107.95 73.2563 99.6441C56.1573 87.9821 36.2331 81.8194 31.0709 80.6561C25.9087 79.4928 17.0315 78.5532 12.592 85.6555C7.66689 93.5347 13.3974 101.344 16.4223 110.147C22.6608 128.305 39.29 151.627 40.6052 152.887C41.9204 154.148 55.7374 168.68 63.9009 160.708C68.4129 156.301 64.8054 145.802 58.1636 136.911C51.5219 128.021 12.9042 97.9422 1.52749 104.702" stroke="white" stroke-opacity="0.6" stroke-width="4"/>
</svg>
