<svg width="17" height="17" viewBox="0 0 17 17" fill="none" xmlns="http://www.w3.org/2000/svg">
<path d="M7.31579 10.4737H4.94737C3.90046 10.4737 2.89643 10.8896 2.15616 11.6298C1.41588 12.3701 1 13.3741 1 14.4211V15.2105H7.35526M12.8421 9.68421V12.8421M12.8421 12.8421V16M12.8421 12.8421H9.68421M12.8421 12.8421H16M11.2632 4.55263C11.2632 5.49485 10.8889 6.39847 10.2226 7.06472C9.55637 7.73097 8.65274 8.10526 7.71053 8.10526C6.76831 8.10526 5.86468 7.73097 5.19844 7.06472C4.53219 6.39847 4.15789 5.49485 4.15789 4.55263C4.15789 3.61042 4.53219 2.70679 5.19844 2.04054C5.86468 1.37429 6.76831 1 7.71053 1C8.65274 1 9.55637 1.37429 10.2226 2.04054C10.8889 2.70679 11.2632 3.61042 11.2632 4.55263Z" stroke="#6AB23D" stroke-width="2" stroke-linecap="square"/>
</svg>
