<svg width="16" height="9" viewBox="0 0 16 9" fill="none" xmlns="http://www.w3.org/2000/svg">
<path d="M15.6478 8.65584C15.4222 8.87621 15.1163 9 14.7974 9C14.4784 9 14.1725 8.87621 13.947 8.65584L7.99274 2.83731L2.03852 8.65584C1.81166 8.86996 1.50781 8.98844 1.19242 8.98576C0.877029 8.98308 0.575335 8.85946 0.352312 8.64152C0.12929 8.42358 0.00278664 8.12876 4.57764e-05 7.82056C-0.00269508 7.51236 0.118547 7.21544 0.33766 6.99374L7.14231 0.344159C7.36788 0.123794 7.67378 0 7.99274 0C8.3117 0 8.6176 0.123794 8.84317 0.344159L15.6478 6.99374C15.8733 7.21417 16 7.5131 16 7.82479C16 8.13648 15.8733 8.43541 15.6478 8.65584Z" fill="#7D7D7D"/>
</svg>
