<svg width="73" height="149" viewBox="0 0 73 149" fill="none" xmlns="http://www.w3.org/2000/svg">
<path d="M73.2841 0L79.5979 46.6215L105.515 7.35644L90.975 52.1004L131.362 27.9687L98.8482 61.9731L145.706 57.7543L101.658 74.2841L145.706 90.8138L98.8482 86.5951L131.362 120.599L90.975 96.4678L105.515 141.212L79.5979 101.947L73.2841 148.568L66.9703 101.947L41.0534 141.212L55.5932 96.4678L15.2064 120.599L47.72 86.5951L0.862457 90.8138L44.9101 74.2841L0.862457 57.7543L47.72 61.9731L15.2064 27.9687L55.5932 52.1004L41.0534 7.35644L66.9703 46.6215L73.2841 0Z" fill="#CBE896"/>
</svg>
