<svg width="168" height="281" viewBox="0 0 168 281" fill="none" xmlns="http://www.w3.org/2000/svg">
<path d="M30.9464 1.71052C30.9464 1.71052 -75.1637 143.825 -45.9945 163.428C-16.8253 183.03 72.1836 56.3478 76.3879 48.0332C80.8097 39.2883 81.4404 29.6976 76.0948 25.4495C70.3323 20.8702 61.6034 20.8969 54.9153 25.7244C52.464 27.4937 26.2716 49.4063 8.34108 82.7975C-11.8539 120.406 -27.2067 167.381 -27.1033 175.345C-27 183.309 -25.7065 192.138 -12.914 200.354C1.16691 209.399 13.9205 203.6 28.1588 192.003C36.8292 184.94 54.2336 171.807 68.8818 156.724C82.5267 142.674 97.5177 123.34 100.8 118.085C104.081 112.83 107.62 103.477 100.495 94.6327C94.2709 86.9055 80.9882 88.7228 75.0564 92.3566C69.1245 95.9905 45.59 117.473 32.7162 138.081C18.2968 161.163 8.88572 192.253 8.0773 197.476C7.26889 202.699 5.47278 221.835 17.2436 228.632C29.0144 235.429 41.8742 232.684 53.1613 228.166C88.6563 213.956 108.287 205.61 134.54 178.46C138.86 172.975 147.128 161.7 141.572 154.043C135.564 145.765 121.59 149.349 112.662 154.419C104.834 158.864 91.1864 166.293 79.733 182.646C63.6515 205.606 54.9701 232.486 53.3078 239.457C51.6455 246.429 50.2237 258.435 59.7674 264.567C70.3553 271.37 81.0271 263.741 93.0009 259.792C117.696 251.649 149.561 229.521 151.29 227.761C153.02 226.001 172.933 207.533 162.273 196.343C156.382 190.159 142.101 194.868 129.95 203.713C117.798 212.558 76.4125 264.351 85.3758 279.872" stroke="#853CFF" stroke-opacity="0.4" stroke-width="4"/>
</svg>
