<svg width="20" height="20" viewBox="0 0 20 20" fill="none" xmlns="http://www.w3.org/2000/svg">
<circle cx="10" cy="10" r="10" fill="#F0436C" fill-opacity="0.3"/>
<path d="M6.14016 4.77L10.0002 8.63L13.8402 4.79C13.925 4.69972 14.0272 4.62749 14.1406 4.57766C14.254 4.52783 14.3763 4.50141 14.5002 4.5C14.7654 4.5 15.0197 4.60536 15.2073 4.79289C15.3948 4.98043 15.5002 5.23478 15.5002 5.5C15.5025 5.6226 15.4797 5.74439 15.4333 5.85788C15.3869 5.97138 15.3178 6.07419 15.2302 6.16L11.3402 10L15.2302 13.89C15.395 14.0512 15.4916 14.2696 15.5002 14.5C15.5002 14.7652 15.3948 15.0196 15.2073 15.2071C15.0197 15.3946 14.7654 15.5 14.5002 15.5C14.3727 15.5053 14.2456 15.484 14.1268 15.4375C14.008 15.3911 13.9002 15.3204 13.8102 15.23L10.0002 11.37L6.15016 15.22C6.06567 15.3073 5.96473 15.3769 5.85316 15.425C5.7416 15.4731 5.62163 15.4986 5.50016 15.5C5.23495 15.5 4.98059 15.3946 4.79306 15.2071C4.60552 15.0196 4.50016 14.7652 4.50016 14.5C4.49783 14.3774 4.52058 14.2556 4.56701 14.1421C4.61344 14.0286 4.68257 13.9258 4.77016 13.84L8.66016 10L4.77016 6.11C4.60535 5.94876 4.5087 5.73041 4.50016 5.5C4.50016 5.23478 4.60552 4.98043 4.79306 4.79289C4.98059 4.60536 5.23495 4.5 5.50016 4.5C5.74016 4.503 5.97016 4.6 6.14016 4.77Z" fill="#F0436C"/>
</svg>
