<svg width="20" height="20" viewBox="0 0 20 20" fill="none" xmlns="http://www.w3.org/2000/svg">
<path d="M8.58555 8.58594C8.21054 8.96109 7.99991 9.46984 8 10.0003C8.00009 10.5307 8.2109 11.0394 8.58605 11.4144C8.9612 11.7895 9.46996 12.0001 10.0004 12C10.5309 11.9999 11.0395 11.7891 11.4146 11.4139" stroke="#7D7D7D" stroke-width="2" stroke-linecap="round" stroke-linejoin="round"/>
<path d="M14.681 14.673C13.2786 15.5515 11.6548 16.0119 10 16C6.4 16 3.4 14 1 10C2.272 7.88 3.712 6.322 5.32 5.326M8.18 4.18C8.77898 4.05836 9.3888 3.99804 10 4C13.6 4 16.6 6 19 10C18.3333 11.11 17.6207 12.0667 16.862 12.87M1 1L19 19" stroke="#7D7D7D" stroke-width="2" stroke-linecap="round" stroke-linejoin="round"/>
</svg>
