<svg width="38" height="15" viewBox="0 0 38 15" fill="none" xmlns="http://www.w3.org/2000/svg">
<path d="M14.448 8.976C14.3307 10.032 13.968 10.96 13.36 11.76C12.752 12.5493 11.952 13.1627 10.96 13.6C9.97867 14.0373 8.848 14.256 7.568 14.256C6.17067 14.256 4.94933 13.9947 3.904 13.472C2.85867 12.9493 2.04267 12.2187 1.456 11.28C0.88 10.3413 0.592 9.248 0.592 8C0.592 6.752 0.88 5.65867 1.456 4.72C2.04267 3.78133 2.85867 3.05067 3.904 2.528C4.94933 2.00533 6.17067 1.744 7.568 1.744C8.848 1.744 9.97867 1.96267 10.96 2.4C11.952 2.83733 12.752 3.456 13.36 4.256C13.968 5.04533 14.3307 5.968 14.448 7.024H11.12C11.0133 6.512 10.8053 6.08 10.496 5.728C10.1867 5.36533 9.78133 5.088 9.28 4.896C8.78933 4.704 8.21867 4.608 7.568 4.608C6.82133 4.608 6.176 4.74667 5.632 5.024C5.088 5.29067 4.672 5.68 4.384 6.192C4.096 6.69333 3.952 7.296 3.952 8C3.952 8.704 4.096 9.312 4.384 9.824C4.672 10.3253 5.088 10.7147 5.632 10.992C6.176 11.2587 6.82133 11.392 7.568 11.392C8.21867 11.392 8.78933 11.3013 9.28 11.12C9.78133 10.9387 10.1867 10.6667 10.496 10.304C10.8053 9.94133 11.0133 9.49867 11.12 8.976H14.448ZM15.9466 1.68H19.2266V14H15.9466V1.68ZM21.1847 4.72L22.8327 5.04L24.4647 4.72V14H21.1847V4.72ZM22.8167 3.968C22.2514 3.968 21.7927 3.82933 21.4407 3.552C21.0887 3.264 20.9127 2.87467 20.9127 2.384C20.9127 1.904 21.0887 1.52 21.4407 1.232C21.7927 0.943999 22.2514 0.799999 22.8167 0.799999C23.4034 0.799999 23.8674 0.943999 24.2087 1.232C24.5608 1.52 24.7368 1.904 24.7368 2.384C24.7368 2.87467 24.5608 3.264 24.2087 3.552C23.8674 3.82933 23.4034 3.968 22.8167 3.968ZM29.7029 11.392L28.8069 11.088L33.8629 4.864H37.3029L29.3509 14H26.4229V1.68H29.7029V11.392ZM31.2549 9.536L33.7189 7.808L37.5429 14H33.8629L31.2549 9.536Z" fill="white"/>
</svg>
