<svg width="13" height="14" viewBox="0 0 13 14" fill="none" xmlns="http://www.w3.org/2000/svg">
<path fill-rule="evenodd" clip-rule="evenodd" d="M3.93066 6.56037C3.72431 5.94197 4.31233 5.35396 4.93073 5.5603L11.6388 7.7959C12.3173 8.02186 12.3718 8.96117 11.7236 9.26372L8.9348 10.5644L7.63345 13.3533C7.33089 14.0014 6.39222 13.947 6.16626 13.2684L3.93066 6.56037ZM5.43139 7.06104L6.99036 11.7379L7.86068 9.87263C7.93927 9.70425 8.07461 9.56891 8.24298 9.49032L10.1089 8.62001L5.43139 7.06104Z" fill="#CBE896"/>
<path d="M7.56382 2.9272C7.68248 3.0459 7.74914 3.20687 7.74914 3.3747C7.74914 3.54254 7.68248 3.70351 7.56382 3.8222L6.66882 4.71847C6.61001 4.77728 6.5402 4.82393 6.46336 4.85575C6.38653 4.88758 6.30417 4.90396 6.22101 4.90396C6.13784 4.90396 6.05549 4.88758 5.97865 4.85575C5.90181 4.82393 5.832 4.77728 5.77319 4.71847C5.71438 4.65966 5.66773 4.58984 5.63591 4.51301C5.60408 4.43617 5.5877 4.35382 5.5877 4.27065C5.5877 4.18749 5.60408 4.10513 5.63591 4.0283C5.66773 3.95146 5.71438 3.88164 5.77319 3.82284L6.66882 2.92784C6.78752 2.80918 6.94848 2.74252 7.11632 2.74252C7.28416 2.74252 7.44513 2.80854 7.56382 2.9272Z" fill="white"/>
<path d="M5.06365 2.2626C5.06365 2.09473 4.99696 1.93374 4.87826 1.81503C4.75956 1.69633 4.59856 1.62964 4.43069 1.62964C4.26282 1.62964 4.10183 1.69633 3.98312 1.81503C3.86442 1.93374 3.79773 2.09473 3.79773 2.2626V3.52851C3.79773 3.69638 3.86442 3.85738 3.98312 3.97608C4.10183 4.09478 4.26282 4.16147 4.43069 4.16147C4.59856 4.16147 4.75956 4.09478 4.87826 3.97608C4.99696 3.85738 5.06365 3.69638 5.06365 3.52851V2.2626Z" fill="white"/>
<path d="M2.19256 2.9272C2.13417 2.86675 2.06433 2.81853 1.9871 2.78536C1.90988 2.75218 1.82682 2.73472 1.74278 2.73399C1.65874 2.73326 1.57539 2.74928 1.4976 2.7811C1.41981 2.81293 1.34914 2.85993 1.28971 2.91936C1.23028 2.97879 1.18329 3.04946 1.15146 3.12725C1.11963 3.20503 1.10362 3.28838 1.10435 3.37243C1.10508 3.45647 1.12254 3.53953 1.15571 3.61675C1.18889 3.69397 1.23711 3.76382 1.29756 3.8222L2.19256 4.71847C2.25141 4.77732 2.32127 4.824 2.39816 4.85585C2.47505 4.8877 2.55747 4.90409 2.64069 4.90409C2.72392 4.90409 2.80633 4.8877 2.88322 4.85585C2.96011 4.824 3.02997 4.77732 3.08882 4.71847C3.14767 4.65962 3.19436 4.58975 3.22621 4.51286C3.25805 4.43597 3.27445 4.35356 3.27445 4.27034C3.27445 4.18711 3.25805 4.1047 3.22621 4.02781C3.19436 3.95092 3.14767 3.88105 3.08882 3.8222L2.19256 2.9272Z" fill="white"/>
<path d="M3.08819 8.29847C3.147 8.2397 3.19366 8.16993 3.2255 8.09313C3.25734 8.01633 3.27375 7.93401 3.27378 7.85087C3.27381 7.76774 3.25746 7.68541 3.22567 7.60859C3.19388 7.53177 3.14727 7.46196 3.08851 7.40315C3.02974 7.34434 2.95997 7.29768 2.88317 7.26584C2.80637 7.234 2.72405 7.2176 2.64092 7.21757C2.55778 7.21754 2.47545 7.23388 2.39863 7.26567C2.32181 7.29746 2.252 7.34407 2.19319 7.40283L1.29756 8.2991C1.17888 8.41787 1.11223 8.57892 1.11229 8.74682C1.11235 8.91473 1.17911 9.07573 1.29788 9.19442C1.41664 9.3131 1.5777 9.37974 1.7456 9.37968C1.9135 9.37962 2.07451 9.31287 2.19319 9.1941L3.08819 8.29847Z" fill="white"/>
<path d="M0 6.06033C0 5.89246 0.0666862 5.73147 0.185388 5.61277C0.304091 5.49407 0.465086 5.42738 0.632956 5.42738H1.89887C2.06674 5.42738 2.22773 5.49407 2.34643 5.61277C2.46514 5.73147 2.53182 5.89246 2.53182 6.06033C2.53182 6.2282 2.46514 6.3892 2.34643 6.5079C2.22773 6.6266 2.06674 6.69329 1.89887 6.69329H0.632956C0.465086 6.69329 0.304091 6.6266 0.185388 6.5079C0.0666862 6.3892 0 6.2282 0 6.06033Z" fill="white"/>
</svg>
