<svg width="123" height="50" viewBox="0 0 123 50" fill="none" xmlns="http://www.w3.org/2000/svg">
<path d="M36.12 27.44C35.8267 30.08 34.92 32.4 33.4 34.4C31.88 36.3733 29.88 37.9067 27.4 39C24.9467 40.0933 22.12 40.64 18.92 40.64C15.4267 40.64 12.3733 39.9867 9.76 38.68C7.14667 37.3733 5.10667 35.5467 3.64 33.2C2.2 30.8533 1.48 28.12 1.48 25C1.48 21.88 2.2 19.1467 3.64 16.8C5.10667 14.4533 7.14667 12.6267 9.76 11.32C12.3733 10.0133 15.4267 9.36 18.92 9.36C22.12 9.36 24.9467 9.90667 27.4 11C29.88 12.0933 31.88 13.64 33.4 15.64C34.92 17.6133 35.8267 19.92 36.12 22.56H27.8C27.5333 21.28 27.0133 20.2 26.24 19.32C25.4667 18.4133 24.4533 17.72 23.2 17.24C21.9733 16.76 20.5467 16.52 18.92 16.52C17.0533 16.52 15.44 16.8667 14.08 17.56C12.72 18.2267 11.68 19.2 10.96 20.48C10.24 21.7333 9.88 23.24 9.88 25C9.88 26.76 10.24 28.28 10.96 29.56C11.68 30.8133 12.72 31.7867 14.08 32.48C15.44 33.1467 17.0533 33.48 18.92 33.48C20.5467 33.48 21.9733 33.2533 23.2 32.8C24.4533 32.3467 25.4667 31.6667 26.24 30.76C27.0133 29.8533 27.5333 28.7467 27.8 27.44H36.12ZM39.8666 9.2H48.0666V40H39.8666V9.2ZM52.9619 16.8L57.0819 17.6L61.1619 16.8V40H52.9619V16.8ZM57.0419 14.92C55.6285 14.92 54.4819 14.5733 53.6019 13.88C52.7219 13.16 52.2819 12.1867 52.2819 10.96C52.2819 9.76 52.7219 8.8 53.6019 8.08C54.4819 7.36 55.6285 7 57.0419 7C58.5085 7 59.6685 7.36 60.5219 8.08C61.4019 8.8 61.8419 9.76 61.8419 10.96C61.8419 12.1867 61.4019 13.16 60.5219 13.88C59.6685 14.5733 58.5085 14.92 57.0419 14.92ZM74.2572 33.48L72.0172 32.72L84.6572 17.16H93.2572L73.3772 40H66.0572V9.2H74.2572V33.48ZM78.1372 28.84L84.2972 24.52L93.8572 40H84.6572L78.1372 28.84Z" fill="white"/>
<path fill-rule="evenodd" clip-rule="evenodd" d="M103.276 22.1397C102.789 20.6235 104.176 19.1817 105.636 19.6876L121.465 25.1692C123.067 25.7233 123.195 28.0264 121.666 28.7682L115.084 31.9576L112.014 38.7956C111.3 40.3848 109.084 40.2514 108.551 38.5876L103.276 22.1397ZM106.817 23.3674L110.496 34.8349L112.55 30.2613C112.735 29.8484 113.055 29.5166 113.452 29.3239L117.855 27.1899L106.817 23.3674Z" fill="#CBE896"/>
<path d="M111.849 13.2314C112.129 13.5224 112.287 13.9171 112.287 14.3286C112.287 14.7401 112.129 15.1348 111.849 15.4259L109.737 17.6235C109.598 17.7677 109.434 17.882 109.252 17.9601C109.071 18.0381 108.877 18.0783 108.68 18.0783C108.484 18.0783 108.29 18.0381 108.109 17.9601C107.927 17.882 107.762 17.7677 107.624 17.6235C107.485 17.4793 107.375 17.3081 107.3 17.1197C107.225 16.9313 107.186 16.7294 107.186 16.5254C107.186 16.3215 107.225 16.1196 107.3 15.9312C107.375 15.7428 107.485 15.5716 107.624 15.4274L109.737 13.2329C110.017 12.942 110.397 12.7785 110.793 12.7785C111.189 12.7785 111.569 12.9404 111.849 13.2314Z" fill="white"/>
<path d="M105.949 11.6018C105.949 11.1902 105.792 10.7954 105.512 10.5044C105.232 10.2133 104.852 10.0498 104.456 10.0498C104.059 10.0498 103.68 10.2133 103.399 10.5044C103.119 10.7954 102.962 11.1902 102.962 11.6018V14.7057C102.962 15.1174 103.119 15.5121 103.399 15.8032C103.68 16.0942 104.059 16.2577 104.456 16.2577C104.852 16.2577 105.232 16.0942 105.512 15.8032C105.792 15.5121 105.949 15.1174 105.949 14.7057V11.6018Z" fill="white"/>
<path d="M99.174 13.2314C99.0363 13.0831 98.8714 12.9649 98.6892 12.8836C98.507 12.8022 98.311 12.7594 98.1126 12.7576C97.9143 12.7558 97.7176 12.7951 97.5341 12.8731C97.3505 12.9512 97.1837 13.0664 97.0435 13.2121C96.9032 13.3578 96.7923 13.5311 96.7172 13.7219C96.6421 13.9126 96.6043 14.117 96.6061 14.323C96.6078 14.5291 96.649 14.7328 96.7273 14.9221C96.8056 15.1114 96.9193 15.2827 97.062 15.4259L99.174 17.6235C99.3129 17.7678 99.4778 17.8822 99.6592 17.9603C99.8407 18.0384 100.035 18.0786 100.232 18.0786C100.428 18.0786 100.622 18.0384 100.804 17.9603C100.985 17.8822 101.15 17.7678 101.289 17.6235C101.428 17.4792 101.538 17.3079 101.613 17.1193C101.688 16.9308 101.727 16.7287 101.727 16.5247C101.727 16.3206 101.688 16.1185 101.613 15.93C101.538 15.7415 101.428 15.5702 101.289 15.4259L99.174 13.2314Z" fill="white"/>
<path d="M101.288 26.4015C101.426 26.2574 101.536 26.0863 101.612 25.898C101.687 25.7097 101.725 25.5078 101.726 25.304C101.726 25.1001 101.687 24.8983 101.612 24.7099C101.537 24.5216 101.427 24.3504 101.288 24.2062C101.15 24.062 100.985 23.9476 100.804 23.8695C100.623 23.7914 100.428 23.7512 100.232 23.7512C100.036 23.7511 99.8416 23.7912 99.6603 23.8691C99.479 23.947 99.3143 24.0613 99.1755 24.2054L97.062 26.403C96.7819 26.6942 96.6247 27.0891 96.6248 27.5008C96.6249 27.9125 96.7825 28.3073 97.0627 28.5983C97.343 28.8893 97.7231 29.0527 98.1193 29.0526C98.5155 29.0524 98.8955 28.8887 99.1755 28.5975L101.288 26.4015Z" fill="white"/>
<path d="M94 20.9137C94 20.5021 94.1574 20.1073 94.4375 19.8163C94.7176 19.5252 95.0975 19.3617 95.4937 19.3617H98.481C98.8771 19.3617 99.257 19.5252 99.5372 19.8163C99.8173 20.1073 99.9746 20.5021 99.9746 20.9137C99.9746 21.3253 99.8173 21.72 99.5372 22.0111C99.257 22.3021 98.8771 22.4657 98.481 22.4657H95.4937C95.0975 22.4657 94.7176 22.3021 94.4375 22.0111C94.1574 21.72 94 21.3253 94 20.9137Z" fill="white"/>
</svg>
