<svg width="84" height="139" viewBox="0 0 84 139" fill="none" xmlns="http://www.w3.org/2000/svg">
<path d="M160.683 40.0165C160.683 40.0165 73.4629 -5.99957 65.2136 11.7146C56.9642 29.4287 134.232 67.3837 139.162 68.9752C144.347 70.6492 149.669 70.1677 151.541 66.8647C153.559 63.3042 152.791 58.512 149.562 55.2551C148.378 54.0614 134.081 41.566 114.192 34.5996C91.7916 26.7535 64.6641 22.3755 60.2984 23.1198C55.9327 23.8641 51.1951 25.3367 47.7861 33.0726C44.0337 41.5877 48.3195 48.0924 55.9191 54.912C60.5468 59.0648 69.2627 67.491 78.8121 74.2349C87.7073 80.5169 99.6212 87.0821 102.791 88.4312C105.961 89.7802 111.403 90.9162 115.647 86.2395C119.354 82.1536 117.209 75.0146 114.701 72.07C112.193 69.1255 98.3612 58.0529 85.9304 52.7606C72.0072 46.8329 54.118 44.3473 51.1793 44.3542C48.2407 44.361 37.5748 45.0263 34.8573 52.0785C32.1398 59.1307 34.7575 65.9574 38.2139 71.767C49.0832 90.037 55.3616 100.099 72.5412 112.176C75.9269 114.075 82.8333 117.643 86.5595 113.93C90.5882 109.916 87.4132 102.549 83.8578 98.0834C80.7403 94.1673 75.4816 87.3123 65.5106 82.4328C51.5107 75.5817 35.997 73.1335 32.0242 72.8223C28.0513 72.511 21.3337 72.7664 18.7895 78.538C15.9669 84.9408 21.0788 90.1441 24.2811 96.3802C30.8858 109.242 45.791 124.834 46.907 125.632C48.023 126.43 59.8858 135.774 65.112 128.953C68.0005 125.183 64.1813 117.745 58.2738 111.834C52.3664 105.923 20.345 87.662 12.5933 93.9253" stroke="white" stroke-width="2"/>
</svg>
