<svg width="54" height="54" viewBox="0 0 54 54" fill="none" xmlns="http://www.w3.org/2000/svg">
<circle cx="27" cy="27" r="27" fill="#B387FC"/>
<path d="M17.25 37.0286H22.125V29.6C22.125 29.179 22.281 28.8264 22.593 28.5422C22.905 28.2579 23.2907 28.1153 23.75 28.1143H30.25C30.7104 28.1143 31.0966 28.2569 31.4086 28.5422C31.7206 28.8274 31.8761 29.18 31.875 29.6V37.0286H36.75V23.6571L27 16.9714L17.25 23.6571V37.0286ZM14 37.0286V23.6571C14 23.1867 14.1154 22.741 14.3461 22.32C14.5769 21.899 14.8948 21.5524 15.3 21.28L25.05 14.5943C25.6187 14.1981 26.2687 14 27 14C27.7312 14 28.3812 14.1981 28.95 14.5943L38.7 21.28C39.1062 21.5524 39.4247 21.899 39.6555 22.32C39.8862 22.741 40.0011 23.1867 40 23.6571V37.0286C40 37.8457 39.6815 38.5455 39.0445 39.1279C38.4075 39.7103 37.6427 40.001 36.75 40H30.25C29.7896 40 29.4039 39.8574 29.093 39.5721C28.7821 39.2869 28.6261 38.9342 28.625 38.5143V31.0857H25.375V38.5143C25.375 38.9352 25.219 39.2883 24.907 39.5736C24.595 39.8589 24.2093 40.001 23.75 40H17.25C16.3562 40 15.5914 39.7093 14.9555 39.1279C14.3196 38.5465 14.0011 37.8467 14 37.0286Z" fill="white"/>
</svg>
