<svg width="27" height="18" viewBox="0 0 27 18" fill="none" xmlns="http://www.w3.org/2000/svg">
<path d="M1.5 18C1.075 18 0.719005 17.856 0.432005 17.568C0.145005 17.28 0.00100517 16.924 5.17241e-06 16.5C-0.000994827 16.076 0.143005 15.72 0.432005 15.432C0.721005 15.144 1.077 15 1.5 15H25.5C25.925 15 26.2815 15.144 26.5695 15.432C26.8575 15.72 27.001 16.076 27 16.5C26.999 16.924 26.855 17.2805 26.568 17.5695C26.281 17.8585 25.925 18.002 25.5 18H1.5ZM1.5 10.5C1.075 10.5 0.719005 10.356 0.432005 10.068C0.145005 9.77999 0.00100517 9.42399 5.17241e-06 8.99999C-0.000994827 8.57599 0.143005 8.21999 0.432005 7.93199C0.721005 7.64399 1.077 7.49999 1.5 7.49999H25.5C25.925 7.49999 26.2815 7.64399 26.5695 7.93199C26.8575 8.21999 27.001 8.57599 27 8.99999C26.999 9.42399 26.855 9.78049 26.568 10.0695C26.281 10.3585 25.925 10.502 25.5 10.5H1.5ZM1.5 3C1.075 3 0.719005 2.856 0.432005 2.568C0.145005 2.28 0.00100517 1.924 5.17241e-06 1.5C-0.000994827 1.076 0.143005 0.719999 0.432005 0.432C0.721005 0.144 1.077 0 1.5 0H25.5C25.925 0 26.2815 0.144 26.5695 0.432C26.8575 0.719999 27.001 1.076 27 1.5C26.999 1.924 26.855 2.2805 26.568 2.5695C26.281 2.8585 25.925 3.002 25.5 3H1.5Z" fill="white"/>
</svg>
