<svg width="290" height="191" viewBox="0 0 290 191" fill="none" xmlns="http://www.w3.org/2000/svg">
<path d="M238.598 -150.275C238.598 -150.275 319.461 83.5349 272.392 97.2392C225.324 110.944 160.657 -95.115 158.589 -107.946C156.415 -121.441 159.637 -134.455 168.54 -137.838C178.138 -141.485 189.728 -137.753 196.574 -128.506C199.082 -125.116 224.618 -84.9027 234.312 -32.931C245.231 25.6044 245.748 94.5389 242.239 105.08C238.729 115.622 233.272 126.808 212.791 132.313C190.247 138.373 175.751 125.266 161.737 103.824C153.203 90.7658 135.631 65.9425 122.548 39.6935C110.361 15.2427 98.6221 -16.8012 96.485 -25.1752C94.348 -33.5493 93.6052 -47.4779 106.819 -56.2168C118.363 -63.8519 135.248 -55.8129 141.593 -48.4717C147.939 -41.1305 170.123 -2.61389 178.509 30.2267C187.901 67.0101 187.247 112.316 186.11 119.6C184.973 126.884 179.259 153.078 160.736 157.129C142.214 161.179 126.284 152.087 113.195 141.302C72.0352 107.388 49.4775 87.985 26.0786 40.7836C22.6593 31.6646 16.4445 13.1795 27.0708 5.35503C38.5601 -3.10488 55.6165 7.57548 65.3358 18.0934C73.858 27.316 88.8518 42.968 97.1511 69.5519C108.804 106.878 108.962 146.279 108.22 156.248C107.478 166.218 104.284 182.778 89.0035 186.887C72.0511 191.446 61.0972 176.787 46.8544 166.47C17.4796 145.192 -15.5033 102.29 -17.0568 99.2185" stroke="#853CFF" stroke-width="5"/>
</svg>
