<svg width="291" height="296" viewBox="0 0 291 296" fill="none" xmlns="http://www.w3.org/2000/svg">
<path d="M311.688 411.595C311.688 411.595 409.486 128.818 352.561 112.243C295.635 95.6685 217.424 344.883 214.923 360.401C212.293 376.722 216.19 392.462 226.958 396.553C238.566 400.964 252.584 396.451 260.863 385.266C263.897 381.167 294.78 332.532 306.505 269.675C319.71 198.881 320.336 115.509 316.092 102.76C311.847 90.0102 305.247 76.4811 280.477 69.8233C253.211 62.4949 235.679 78.3459 218.73 104.28C208.409 120.072 187.157 150.094 171.334 181.841C156.594 211.412 142.397 250.167 139.812 260.295C137.228 270.423 136.329 287.269 152.31 297.838C166.272 307.072 186.693 297.349 194.368 288.471C202.042 279.592 228.873 233.009 239.015 193.29C250.374 148.803 249.583 94.0089 248.208 85.1992C246.833 76.3895 239.922 44.7098 217.52 39.8107C195.118 34.9117 175.852 45.9086 160.022 58.9516C110.242 99.9689 82.9597 123.435 54.6604 180.522C50.525 191.551 43.0085 213.908 55.8603 223.371C69.7559 233.603 90.3845 220.685 102.139 207.965C112.446 196.811 130.58 177.88 140.618 145.729C154.711 100.586 154.903 52.9332 154.005 40.8755C153.107 28.8178 149.245 8.7898 130.764 3.81993C110.261 -1.69362 97.013 16.0349 79.7873 28.5128C44.2604 54.2478 4.36981 106.135 2.49097 109.849" stroke="#853CFF" stroke-width="5"/>
</svg>
