<svg width="73" height="126" viewBox="0 0 73 126" fill="none" xmlns="http://www.w3.org/2000/svg">
<path d="M148.718 33.3598C148.718 33.3598 61.498 -12.6563 53.2487 5.05783C44.9994 22.772 122.267 60.7269 127.197 62.3185C132.382 63.9924 137.704 63.511 139.576 60.208C141.594 56.6475 140.826 51.8552 137.597 48.5983C136.413 47.4046 122.116 34.9093 102.227 27.9429C79.8268 20.0967 52.6992 15.7188 48.3336 16.4631C43.9679 17.2073 39.2302 18.6799 35.8212 26.4158C32.0689 34.9309 36.3547 41.4356 43.9542 48.2553C48.582 52.4081 57.2979 60.8342 66.8472 67.5782C75.7425 73.8601 87.6563 80.4254 90.8261 81.7744C93.9959 83.1234 99.4386 84.2595 103.682 79.5828C107.389 75.4968 105.244 68.3578 102.736 65.4133C100.228 62.4687 86.3963 51.3962 73.9656 46.1039C60.0423 40.1761 42.1531 37.6906 39.2145 37.6974C36.2758 37.7042 25.6099 38.3695 22.8924 45.4217C20.175 52.474 22.7927 59.3006 26.249 65.1103C37.1183 83.3802 43.3967 93.4424 60.5764 105.519C63.962 107.419 70.8685 110.986 74.5946 107.274C78.6234 103.259 75.4483 95.8927 71.893 91.4266C68.7755 87.5106 63.5168 80.6556 53.5458 75.7761C39.5458 68.925 24.0321 66.4768 20.0593 66.1655C16.0865 65.8543 9.36888 66.1097 6.82464 71.8812C4.00206 78.2841 9.11395 83.4873 12.3163 89.7234C18.9209 102.585 33.8262 118.177 34.9422 118.975C36.0582 119.773 47.921 129.117 53.1472 122.296C56.0357 118.526 52.2165 111.089 46.309 105.177C40.4015 99.2663 8.38015 81.0053 0.628477 87.2685" stroke="white" stroke-width="2"/>
</svg>
