<svg width="73" height="127" viewBox="0 0 73 127" fill="none" xmlns="http://www.w3.org/2000/svg">
<path d="M149.683 34.016C149.683 34.016 62.4629 -12.0001 54.2136 5.71408C45.9642 23.4282 123.232 61.3832 128.162 62.9747C133.347 64.6487 138.669 64.1672 140.541 60.8643C142.559 57.3037 141.791 52.5115 138.562 49.2546C137.378 48.0609 123.081 35.5655 103.192 28.5991C80.7916 20.753 53.6641 16.375 49.2984 17.1193C44.9327 17.8636 40.1951 19.3362 36.7861 27.0721C33.0337 35.5872 37.3195 42.0919 44.9191 48.9115C49.5468 53.0643 58.2627 61.4905 67.8121 68.2344C76.7073 74.5164 88.6212 81.0816 91.791 82.4307C94.9608 83.7797 100.403 84.9157 104.647 80.239C108.354 76.1531 106.209 69.0141 103.701 66.0695C101.193 63.125 87.3612 52.0524 74.9304 46.7601C61.0072 40.8324 43.118 38.3468 40.1793 38.3537C37.2407 38.3605 26.5748 39.0258 23.8573 46.078C21.1398 53.1302 23.7575 59.9569 27.2139 65.7665C38.0832 84.0365 44.3616 94.0987 61.5412 106.176C64.9269 108.075 71.8333 111.643 75.5595 107.93C79.5882 103.916 76.4132 96.549 72.8578 92.0829C69.7403 88.1668 64.4816 81.3118 54.5106 76.4323C40.5107 69.5812 24.997 67.133 21.0242 66.8218C17.0513 66.5105 10.3337 66.766 7.78948 72.5375C4.9669 78.9404 10.0788 84.1436 13.2811 90.3797C19.8858 103.241 34.791 118.834 35.907 119.632C37.023 120.43 48.8858 129.773 54.112 122.952C57.0005 119.182 53.1813 111.745 47.2738 105.834C41.3664 99.9226 9.34499 81.6616 1.59332 87.9248" stroke="white" stroke-width="2"/>
</svg>
