<svg width="20" height="20" viewBox="0 0 20 20" fill="none" xmlns="http://www.w3.org/2000/svg">
<path d="M8.58506 8.58691C8.21005 8.96206 7.99942 9.47082 7.99951 10.0013C7.99961 10.5317 8.21041 11.0404 8.58556 11.4154C8.96071 11.7904 9.46947 12.0011 9.99992 12.001C10.5304 12.0009 11.039 11.7901 11.4141 11.4149" stroke="#7D7D7D" stroke-width="2" stroke-linecap="round" stroke-linejoin="round"/>
<path d="M14.681 14.673C13.2786 15.5515 11.6548 16.0119 10 16C6.4 16 3.4 14 1 10C2.272 7.88 3.712 6.322 5.32 5.326M8.18 4.18C8.77898 4.05836 9.3888 3.99804 10 4C13.6 4 16.6 6 19 10C18.3333 11.11 17.6207 12.0667 16.862 12.87M1 1L19 19" stroke="#7D7D7D" stroke-width="2" stroke-linecap="round" stroke-linejoin="round"/>
</svg>
