<svg width="37" height="35" viewBox="0 0 37 35" fill="none" xmlns="http://www.w3.org/2000/svg">
<path d="M37 9.84375C37 12.4545 35.9681 14.9583 34.1314 16.8043C32.2946 18.6504 29.8034 19.6875 27.2059 19.6875C24.6083 19.6875 22.1171 18.6504 20.2804 16.8043C18.4436 14.9583 17.4118 12.4545 17.4118 9.84375C17.4118 7.23303 18.4436 4.72923 20.2804 2.88317C22.1171 1.03711 24.6083 0 27.2059 0C29.8034 0 32.2946 1.03711 34.1314 2.88317C35.9681 4.72923 37 7.23303 37 9.84375ZM27.2059 4.375C26.9173 4.375 26.6405 4.49023 26.4364 4.69535C26.2323 4.90047 26.1176 5.17867 26.1176 5.46875V9.84375C26.1176 10.1338 26.2323 10.412 26.4364 10.6171C26.6405 10.8223 26.9173 10.9375 27.2059 10.9375C27.4945 10.9375 27.7713 10.8223 27.9754 10.6171C28.1795 10.412 28.2941 10.1338 28.2941 9.84375V5.46875C28.2941 5.17867 28.1795 4.90047 27.9754 4.69535C27.7713 4.49023 27.4945 4.375 27.2059 4.375ZM27.2059 15.5859C27.5667 15.5859 27.9127 15.4419 28.1678 15.1855C28.4229 14.9291 28.5662 14.5814 28.5662 14.2188C28.5662 13.8561 28.4229 13.5084 28.1678 13.252C27.9127 12.9956 27.5667 12.8516 27.2059 12.8516C26.8451 12.8516 26.4991 12.9956 26.244 13.252C25.9889 13.5084 25.8456 13.8561 25.8456 14.2188C25.8456 14.5814 25.9889 14.9291 26.244 15.1855C26.4991 15.4419 26.8451 15.5859 27.2059 15.5859ZM32.6471 29.5312V20.5625C33.4224 20.1644 34.1522 19.6825 34.8235 19.1253V29.5312C34.8235 30.9817 34.2503 32.3727 33.2298 33.3982C32.2094 34.4238 30.8254 35 29.3824 35H5.44118C3.99809 35 2.6141 34.4238 1.59368 33.3982C0.573265 32.3727 0 30.9817 0 29.5312V12.0312C0 10.5808 0.573265 9.18985 1.59368 8.16426C2.6141 7.13867 3.99809 6.5625 5.44118 6.5625H15.6858C15.4847 7.2776 15.3499 8.0099 15.2832 8.75H5.44118C4.57532 8.75 3.74493 9.0957 3.13268 9.71106C2.52043 10.3264 2.17647 11.161 2.17647 12.0312V12.6919L17.4118 21.7L20.5481 19.845C21.26 20.3244 22.021 20.7255 22.8181 21.0416L17.9646 23.9116C17.8258 23.9935 17.6706 24.0434 17.5103 24.0578C17.35 24.0722 17.1885 24.0506 17.0374 23.9947L16.8589 23.9116L2.17647 15.2316V29.5312C2.17647 30.4015 2.52043 31.2361 3.13268 31.8514C3.74493 32.4668 4.57532 32.8125 5.44118 32.8125H29.3824C30.2482 32.8125 31.0786 32.4668 31.6908 31.8514C32.3031 31.2361 32.6471 30.4015 32.6471 29.5312Z" fill="#F0436C"/>
</svg>
