<svg width="24" height="24" viewBox="0 0 24 24" fill="none" xmlns="http://www.w3.org/2000/svg">
<path d="M8 7C8 6.057 8 5.586 8.293 5.293C8.586 5 9.057 5 10 5H11.764C12.365 5 12.666 5 12.908 5.15C13.149 5.299 13.284 5.568 13.553 6.106L14.5 8H18C18.943 8 19.414 8 19.707 8.293C20 8.586 20 9.057 20 10V13C20 13.943 20 14.414 19.707 14.707C19.414 15 18.943 15 18 15H10C9.057 15 8.586 15 8.293 14.707C8 14.414 8 13.943 8 13V7Z" stroke="white" stroke-width="2" stroke-linejoin="round"/>
<path d="M17 15V17.4C17 17.96 17 18.24 16.891 18.454C16.7951 18.6422 16.6422 18.7951 16.454 18.891C16.24 19 15.96 19 15.4 19H5.6C5.04 19 4.76 19 4.546 18.891C4.35785 18.7951 4.20487 18.6422 4.109 18.454C4 18.24 4 17.96 4 17.4V9.6C4 9.04 4 8.76 4.109 8.546C4.20487 8.35785 4.35785 8.20487 4.546 8.109C4.76 8 5.04 8 5.6 8H8" stroke="white" stroke-width="2" stroke-linejoin="round"/>
</svg>
