<svg width="24" height="22" viewBox="0 0 24 22" fill="none" xmlns="http://www.w3.org/2000/svg">
<path d="M6.6665 4.33341C6.6665 3.07608 6.6665 2.44808 7.05717 2.05741C7.44784 1.66675 8.07584 1.66675 9.33317 1.66675H11.6852C12.4865 1.66675 12.8878 1.66675 13.2105 1.86675C13.5318 2.06541 13.7118 2.42408 14.0705 3.14141L15.3332 5.66675H19.9998C21.2572 5.66675 21.8852 5.66675 22.2758 6.05741C22.6665 6.44808 22.6665 7.07608 22.6665 8.33341V12.3334C22.6665 13.5907 22.6665 14.2187 22.2758 14.6094C21.8852 15.0001 21.2572 15.0001 19.9998 15.0001H9.33317C8.07584 15.0001 7.44784 15.0001 7.05717 14.6094C6.6665 14.2187 6.6665 13.5907 6.6665 12.3334V4.33341Z" stroke="white" stroke-width="2" stroke-linejoin="round"/>
<path d="M18.6666 15.0001V18.2001C18.6666 18.9467 18.6666 19.3201 18.5213 19.6054C18.3934 19.8563 18.1895 20.0603 17.9386 20.1881C17.6533 20.3334 17.2799 20.3334 16.5333 20.3334H3.46659C2.71992 20.3334 2.34659 20.3334 2.06125 20.1881C1.81038 20.0603 1.60641 19.8563 1.47859 19.6054C1.33325 19.3201 1.33325 18.9467 1.33325 18.2001V7.80008C1.33325 7.05342 1.33325 6.68008 1.47859 6.39475C1.60641 6.14388 1.81038 5.93991 2.06125 5.81208C2.34659 5.66675 2.71992 5.66675 3.46659 5.66675H6.66659" stroke="white" stroke-width="2" stroke-linejoin="round"/>
</svg>
