<svg width="20" height="20" viewBox="0 0 20 20" fill="none" xmlns="http://www.w3.org/2000/svg">
<path d="M9.40002 16.161L16.796 8.76497C15.5518 8.24519 14.4218 7.48616 13.47 6.53096C12.5144 5.57901 11.755 4.44861 11.235 3.20396L3.83902 10.6C3.26202 11.177 2.97302 11.466 2.72502 11.784C2.43241 12.1594 2.18128 12.5655 1.97602 12.995C1.80302 13.359 1.67402 13.747 1.41602 14.521L0.054019 18.604C-0.00866732 18.7909 -0.0179678 18.9916 0.0271628 19.1836C0.0722933 19.3755 0.170066 19.5511 0.30949 19.6905C0.448915 19.8299 0.624464 19.9277 0.816406 19.9728C1.00835 20.018 1.20907 20.0087 1.39602 19.946L5.47902 18.584C6.25402 18.326 6.64102 18.197 7.00502 18.024C7.43635 17.8186 7.84002 17.569 8.21602 17.275C8.53402 17.027 8.82302 16.738 9.40002 16.161ZM18.848 6.71297C19.5855 5.97553 19.9997 4.97535 19.9997 3.93246C19.9997 2.88958 19.5855 1.8894 18.848 1.15196C18.1106 0.41453 17.1104 0.000244148 16.0675 0.000244141C15.0246 0.000244133 14.0245 0.41453 13.287 1.15196L12.4 2.03896L12.438 2.14997C12.875 3.40074 13.5903 4.53595 14.53 5.46996C15.492 6.43778 16.6669 7.16721 17.961 7.59997L18.848 6.71297Z" fill="white"/>
</svg>
