<svg width="16" height="17" viewBox="0 0 16 17" fill="none" xmlns="http://www.w3.org/2000/svg">
<path d="M7.52053 13.7361L13.4371 7.44975C12.4418 7.00795 11.5378 6.3628 10.7764 5.55091C10.0119 4.74178 9.40443 3.78098 8.98847 2.72306L3.07189 9.00944C2.6103 9.49987 2.37911 9.74551 2.18072 10.0158C1.94664 10.3349 1.74575 10.6801 1.58154 11.0451C1.44314 11.3545 1.33995 11.6843 1.13356 12.3422L0.0439948 15.8126C-0.00615239 15.9715 -0.0135925 16.1421 0.0225107 16.3053C0.0586138 16.4684 0.136829 16.6176 0.248365 16.7361C0.3599 16.8546 0.500335 16.9377 0.653883 16.9761C0.807431 17.0144 0.968005 17.0065 1.11756 16.9533L4.38384 15.7956C5.00382 15.5763 5.31341 15.4667 5.6046 15.3196C5.94965 15.1451 6.27257 14.9329 6.57336 14.683C6.82775 14.4722 7.05894 14.2266 7.52053 13.7361ZM15.0787 5.70561C15.6686 5.07881 16 4.22869 16 3.34227C16 2.45584 15.6686 1.60572 15.0787 0.978928C14.4887 0.352131 13.6886 6.60438e-09 12.8543 0C12.0201 -6.60438e-09 11.2199 0.352131 10.63 0.978928L9.92044 1.73285L9.95084 1.8272C10.3004 2.89032 10.8727 3.85522 11.6244 4.6491C12.3939 5.47171 13.3338 6.0917 14.3691 6.45953L15.0787 5.70561Z" fill="white"/>
</svg>
