<svg width="4" height="19" viewBox="0 0 4 19" fill="none" xmlns="http://www.w3.org/2000/svg">
<path d="M0 1.875C0 1.6125 -1.93832e-07 1.48312 0.0149998 1.37437C0.0627267 1.0307 0.221304 0.711994 0.466649 0.466649C0.711994 0.221304 1.0307 0.0627267 1.37437 0.0149998C1.48125 -1.93831e-07 1.6125 0 1.875 0C2.1375 0 2.26688 -1.93831e-07 2.37563 0.0149998C2.7193 0.0627267 3.03801 0.221304 3.28335 0.466649C3.5287 0.711994 3.68727 1.0307 3.735 1.37437C3.75 1.48125 3.75 1.6125 3.75 1.875C3.75 2.1375 3.75 2.26687 3.735 2.37562C3.68727 2.7193 3.5287 3.038 3.28335 3.28335C3.03801 3.52869 2.7193 3.68727 2.37563 3.735C2.26875 3.75 2.1375 3.75 1.875 3.75C1.6125 3.75 1.48312 3.75 1.37437 3.735C1.0307 3.68727 0.711994 3.52869 0.466649 3.28335C0.221304 3.038 0.0627267 2.7193 0.0149998 2.37562C-1.93832e-07 2.26875 0 2.1375 0 1.875ZM0 9.375C0 9.1125 -1.93832e-07 8.98312 0.0149998 8.87437C0.0627267 8.5307 0.221304 8.21199 0.466649 7.96665C0.711994 7.7213 1.0307 7.56272 1.37437 7.515C1.48125 7.5 1.6125 7.5 1.875 7.5C2.1375 7.5 2.26688 7.5 2.37563 7.515C2.7193 7.56272 3.03801 7.7213 3.28335 7.96665C3.5287 8.21199 3.68727 8.5307 3.735 8.87437C3.75 8.98125 3.75 9.1125 3.75 9.375C3.75 9.6375 3.75 9.76687 3.735 9.87562C3.68727 10.2193 3.5287 10.538 3.28335 10.7833C3.03801 11.0287 2.7193 11.1873 2.37563 11.235C2.26875 11.25 2.1375 11.25 1.875 11.25C1.6125 11.25 1.48312 11.25 1.37437 11.235C1.0307 11.1873 0.711994 11.0287 0.466649 10.7833C0.221304 10.538 0.0627267 10.2193 0.0149998 9.87562C-1.93832e-07 9.76875 0 9.6375 0 9.375ZM0 16.875C0 16.6144 -1.93832e-07 16.4831 0.0149998 16.3744C0.0630061 16.0313 0.221476 15.7132 0.466419 15.4683C0.711362 15.2233 1.02944 15.0649 1.3725 15.0169C1.48312 15.0019 1.6125 15.0019 1.87313 15.0019C2.13375 15.0019 2.26687 15.0019 2.37375 15.0169C2.71681 15.0649 3.03489 15.2233 3.27983 15.4683C3.52477 15.7132 3.68324 16.0313 3.73125 16.3744C3.74625 16.4831 3.74625 16.6144 3.74625 16.875C3.74625 17.1356 3.74625 17.2669 3.73125 17.3756C3.68324 17.7187 3.52477 18.0368 3.27983 18.2817C3.03489 18.5266 2.71681 18.6851 2.37375 18.7331C2.265 18.7481 2.13375 18.7481 1.87313 18.7481C1.6125 18.7481 1.48125 18.7481 1.3725 18.7331C1.02944 18.6851 0.711362 18.5266 0.466419 18.2817C0.221476 18.0368 0.0630061 17.7187 0.0149998 17.3756C-1.93832e-07 17.2669 0 17.1356 0 16.875Z" fill="#7D7D7D"/>
</svg>
