<svg width="7" height="13" viewBox="0 0 7 13" fill="none" xmlns="http://www.w3.org/2000/svg">
<path d="M0.267679 12.7138C0.0962844 12.5306 0 12.282 0 12.0229C0 11.7637 0.0962844 11.5152 0.267679 11.3319L4.7932 6.4941L0.267679 1.6563C0.101142 1.47197 0.00899029 1.22509 0.0110736 0.968841C0.0131564 0.712586 0.109307 0.467459 0.278816 0.286254C0.448325 0.105048 0.677629 0.00226402 0.917342 3.71933e-05C1.15705 -0.00218964 1.38799 0.0963192 1.56042 0.274348L6.73232 5.80312C6.90372 5.9864 7 6.23495 7 6.4941C7 6.75325 6.90372 7.0018 6.73232 7.18507L1.56042 12.7138C1.38898 12.8971 1.15648 13 0.914052 13C0.671626 13 0.439126 12.8971 0.267679 12.7138Z" fill="#7D7D7D"/>
</svg>
