<svg width="30" height="30" viewBox="0 0 30 30" fill="none" xmlns="http://www.w3.org/2000/svg">
<path d="M13.125 7.5C13.125 7.2375 13.125 7.10812 13.14 6.99937C13.1877 6.6557 13.3463 6.33699 13.5916 6.09165C13.837 5.8463 14.1557 5.68773 14.4994 5.64C14.6062 5.625 14.7375 5.625 15 5.625C15.2625 5.625 15.3919 5.625 15.5006 5.64C15.8443 5.68773 16.163 5.8463 16.4084 6.09165C16.6537 6.33699 16.8123 6.6557 16.86 6.99937C16.875 7.10625 16.875 7.2375 16.875 7.5C16.875 7.7625 16.875 7.89187 16.86 8.00062C16.8123 8.3443 16.6537 8.663 16.4084 8.90835C16.163 9.15369 15.8443 9.31227 15.5006 9.36C15.3938 9.375 15.2625 9.375 15 9.375C14.7375 9.375 14.6081 9.375 14.4994 9.36C14.1557 9.31227 13.837 9.15369 13.5916 8.90835C13.3463 8.663 13.1877 8.3443 13.14 8.00062C13.125 7.89375 13.125 7.7625 13.125 7.5ZM13.125 15C13.125 14.7375 13.125 14.6081 13.14 14.4994C13.1877 14.1557 13.3463 13.837 13.5916 13.5916C13.837 13.3463 14.1557 13.1877 14.4994 13.14C14.6062 13.125 14.7375 13.125 15 13.125C15.2625 13.125 15.3919 13.125 15.5006 13.14C15.8443 13.1877 16.163 13.3463 16.4084 13.5916C16.6537 13.837 16.8123 14.1557 16.86 14.4994C16.875 14.6062 16.875 14.7375 16.875 15C16.875 15.2625 16.875 15.3919 16.86 15.5006C16.8123 15.8443 16.6537 16.163 16.4084 16.4083C16.163 16.6537 15.8443 16.8123 15.5006 16.86C15.3938 16.875 15.2625 16.875 15 16.875C14.7375 16.875 14.6081 16.875 14.4994 16.86C14.1557 16.8123 13.837 16.6537 13.5916 16.4083C13.3463 16.163 13.1877 15.8443 13.14 15.5006C13.125 15.3937 13.125 15.2625 13.125 15ZM13.125 22.5C13.125 22.2394 13.125 22.1081 13.14 21.9994C13.188 21.6563 13.3465 21.3382 13.5914 21.0933C13.8364 20.8483 14.1544 20.6899 14.4975 20.6419C14.6081 20.6269 14.7375 20.6269 14.9981 20.6269C15.2588 20.6269 15.3919 20.6269 15.4987 20.6419C15.8418 20.6899 16.1599 20.8483 16.4048 21.0933C16.6498 21.3382 16.8082 21.6563 16.8562 21.9994C16.8712 22.1081 16.8713 22.2394 16.8713 22.5C16.8713 22.7606 16.8712 22.8919 16.8562 23.0006C16.8082 23.3437 16.6498 23.6618 16.4048 23.9067C16.1599 24.1516 15.8418 24.3101 15.4987 24.3581C15.39 24.3731 15.2588 24.3731 14.9981 24.3731C14.7375 24.3731 14.6062 24.3731 14.4975 24.3581C14.1544 24.3101 13.8364 24.1516 13.5914 23.9067C13.3465 23.6618 13.188 23.3437 13.14 23.0006C13.125 22.8919 13.125 22.7606 13.125 22.5Z" fill="#7D7D7D"/>
</svg>
