<svg width="12" height="14" viewBox="0 0 12 14" fill="none" xmlns="http://www.w3.org/2000/svg">
<path fill-rule="evenodd" clip-rule="evenodd" d="M0.305421 1.0635C0.32625 0.877227 0.387645 0.698694 0.484726 0.54209C0.581807 0.385486 0.711896 0.255131 0.864652 0.161387C1.01741 0.0676434 1.18862 0.0130957 1.36467 0.00208095C1.54072 -0.0089338 1.71676 0.0238881 1.8788 0.0979372C2.69788 0.470379 4.53349 1.35554 6.86271 2.78542C9.19269 4.21613 10.8316 5.46553 11.5435 6.0324C12.1513 6.51723 12.1528 7.47868 11.5443 7.96516C10.8393 8.52874 9.22046 9.76173 6.86271 11.2105C4.50264 12.6592 2.68863 13.5337 1.87726 13.9013C1.17849 14.2187 0.39643 13.7372 0.305421 12.9357C0.198986 11.9988 0 9.87166 0 6.99878C0 4.12753 0.198215 2.00116 0.305421 1.0635Z" fill="#6AB23D"/>
</svg>
