<svg width="12" height="17" viewBox="0 0 12 17" fill="none" xmlns="http://www.w3.org/2000/svg">
<path fill-rule="evenodd" clip-rule="evenodd" d="M0.303386 1.08294C0.324076 0.893268 0.385062 0.71147 0.481497 0.552002C0.577931 0.392535 0.707153 0.259797 0.858891 0.164338C1.01063 0.0688803 1.1807 0.0133352 1.35558 0.002119C1.53046 -0.00909716 1.70533 0.0243249 1.86628 0.099728C2.67991 0.47898 4.50329 1.38033 6.81699 2.83636C9.13145 4.29322 10.7595 5.56547 11.4666 6.1427C12.0703 6.6364 12.0718 7.61544 11.4674 8.1108C10.7671 8.68469 9.15903 9.94023 6.81699 11.4155C4.47264 12.8907 2.67071 13.7812 1.86475 14.1554C1.17064 14.4787 0.393789 13.9884 0.303386 13.1722C0.197661 12.2183 0 10.0522 0 7.12675C0 4.203 0.196895 2.03776 0.303386 1.08294Z" fill="white"/>
</svg>
