<svg width="16" height="21" viewBox="0 0 16 21" fill="none" xmlns="http://www.w3.org/2000/svg">
<path fill-rule="evenodd" clip-rule="evenodd" d="M0.66895 1.76001C0.695956 1.53295 0.775559 1.31532 0.901432 1.12442C1.0273 0.933524 1.19597 0.774624 1.39403 0.660351C1.59209 0.546079 1.81408 0.479586 2.04234 0.46616C2.27061 0.452733 2.49886 0.492742 2.70895 0.583007C3.77095 1.03701 6.15095 2.11601 9.17095 3.85901C12.1919 5.60301 14.3169 7.12601 15.2399 7.81701C16.0279 8.40801 16.0299 9.58001 15.2409 10.173C14.3269 10.86 12.2279 12.363 9.17095 14.129C6.11095 15.895 3.75895 16.961 2.70695 17.409C1.80095 17.796 0.78695 17.209 0.66895 16.232C0.53095 15.09 0.272949 12.497 0.272949 8.99501C0.272949 5.49501 0.52995 2.90301 0.66895 1.76001Z" fill="white"/>
</svg>
